<svg xmlns="http://www.w3.org/2000/svg" width="804.138" height="592.471" viewBox="0 0 804.138 592.471">
  <g id="Group_38" data-name="Group 38" transform="translate(0 0)">
    <rect id="Rectangle_57" data-name="Rectangle 57" width="338.009" height="9.915" transform="translate(466.13 219.383)" fill="#e6e6e6"/>
    <rect id="Rectangle_58" data-name="Rectangle 58" width="85.629" height="85.629" transform="translate(494.071 136.459)" fill="#e6e6e6"/>
    <rect id="Rectangle_59" data-name="Rectangle 59" width="51.377" height="51.377" transform="translate(511.197 153.585)" fill="#ccc"/>
    <rect id="Rectangle_60" data-name="Rectangle 60" width="21.633" height="85.629" transform="translate(686.06 136.459)" fill="#e6e6e6"/>
    <rect id="Rectangle_61" data-name="Rectangle 61" width="21.633" height="9.915" transform="translate(686.06 149.979)" fill="#ccc"/>
    <rect id="Rectangle_62" data-name="Rectangle 62" width="21.633" height="9.915" transform="translate(686.06 193.244)" fill="#ccc"/>
    <rect id="Rectangle_63" data-name="Rectangle 63" width="21.633" height="85.629" transform="translate(652.711 136.459)" fill="#e6e6e6"/>
    <rect id="Rectangle_64" data-name="Rectangle 64" width="21.633" height="9.915" transform="translate(652.711 149.979)" fill="#ccc"/>
    <rect id="Rectangle_65" data-name="Rectangle 65" width="21.633" height="9.915" transform="translate(652.711 193.244)" fill="#ccc"/>
    <rect id="Rectangle_66" data-name="Rectangle 66" width="21.633" height="85.629" transform="matrix(0.896, -0.444, 0.444, 0.896, 706.945, 145.704)" fill="#e6e6e6"/>
    <rect id="Rectangle_67" data-name="Rectangle 67" width="21.633" height="9.915" transform="matrix(0.896, -0.444, 0.444, 0.896, 712.944, 157.819)" fill="#ccc"/>
    <rect id="Rectangle_68" data-name="Rectangle 68" width="21.633" height="9.915" transform="matrix(0.896, -0.444, 0.444, 0.896, 732.141, 196.593)" fill="#ccc"/>
    <path id="Path_670" data-name="Path 670" d="M524.745,170.382l10.895,18.869,10.894,18.869H502.958l10.894-18.869Z" transform="translate(1.324 0.448)" fill="#e6e6e6"/>
    <path id="Path_671" data-name="Path 671" d="M543.624,173.978l10.894,18.869,10.895,18.869H521.837l10.894-18.869Z" transform="translate(1.374 0.457)" fill="#e6e6e6"/>
    <ellipse id="Ellipse_77" data-name="Ellipse 77" cx="6.309" cy="6.309" rx="6.309" ry="6.309" transform="translate(546.351 156.288)" fill="#e6e6e6"/>
    <rect id="Rectangle_69" data-name="Rectangle 69" width="338.009" height="9.915" transform="translate(466.13 83.278)" fill="#e6e6e6"/>
    <rect id="Rectangle_70" data-name="Rectangle 70" width="85.629" height="85.629" transform="translate(690.567 0.353)" fill="#e6e6e6"/>
    <rect id="Rectangle_71" data-name="Rectangle 71" width="51.377" height="51.377" transform="translate(707.694 17.479)" fill="#ccc"/>
    <rect id="Rectangle_72" data-name="Rectangle 72" width="21.633" height="85.629" transform="translate(562.575 0.353)" fill="#e6e6e6"/>
    <rect id="Rectangle_73" data-name="Rectangle 73" width="21.633" height="9.915" transform="translate(562.575 13.874)" fill="#ccc"/>
    <rect id="Rectangle_74" data-name="Rectangle 74" width="21.633" height="9.915" transform="translate(562.575 57.139)" fill="#ccc"/>
    <rect id="Rectangle_75" data-name="Rectangle 75" width="21.633" height="85.629" transform="translate(595.925 0.353)" fill="#e6e6e6"/>
    <rect id="Rectangle_76" data-name="Rectangle 76" width="21.633" height="9.915" transform="translate(595.925 13.874)" fill="#ccc"/>
    <rect id="Rectangle_77" data-name="Rectangle 77" width="21.633" height="9.915" transform="translate(595.925 57.139)" fill="#ccc"/>
    <rect id="Rectangle_78" data-name="Rectangle 78" width="21.633" height="85.629" transform="matrix(-0.896, -0.444, 0.444, -0.896, 525.33, 86.337)" fill="#e6e6e6"/>
    <rect id="Rectangle_79" data-name="Rectangle 79" width="21.633" height="9.915" transform="matrix(-0.896, -0.444, 0.444, -0.896, 552.924, 30.6)" fill="#ccc"/>
    <rect id="Rectangle_80" data-name="Rectangle 80" width="21.633" height="9.915" transform="matrix(-0.896, -0.444, 0.444, -0.896, 533.728, 69.374)" fill="#ccc"/>
    <path id="Path_672" data-name="Path 672" d="M742.3,34.634,731.408,53.5,720.514,72.371h43.575L753.195,53.5Z" transform="translate(1.897 0.09)" fill="#e6e6e6"/>
    <path id="Path_673" data-name="Path 673" d="M723.422,38.23,712.529,57.1,701.635,75.967H745.21L734.317,57.1Z" transform="translate(1.847 0.1)" fill="#e6e6e6"/>
    <ellipse id="Ellipse_78" data-name="Ellipse 78" cx="6.309" cy="6.309" rx="6.309" ry="6.309" transform="translate(711.299 20.183)" fill="#e6e6e6"/>
    <rect id="Rectangle_81" data-name="Rectangle 81" width="338.009" height="9.915" transform="translate(466.13 355.488)" fill="#e6e6e6"/>
    <rect id="Rectangle_82" data-name="Rectangle 82" width="85.629" height="85.629" transform="translate(690.567 272.563)" fill="#e6e6e6"/>
    <rect id="Rectangle_83" data-name="Rectangle 83" width="51.377" height="51.377" transform="translate(707.694 289.689)" fill="#ccc"/>
    <rect id="Rectangle_84" data-name="Rectangle 84" width="21.633" height="85.629" transform="translate(562.575 272.563)" fill="#e6e6e6"/>
    <rect id="Rectangle_85" data-name="Rectangle 85" width="21.633" height="9.915" transform="translate(562.575 286.084)" fill="#ccc"/>
    <rect id="Rectangle_86" data-name="Rectangle 86" width="21.633" height="9.915" transform="translate(562.575 329.348)" fill="#ccc"/>
    <rect id="Rectangle_87" data-name="Rectangle 87" width="21.633" height="85.629" transform="translate(595.925 272.563)" fill="#e6e6e6"/>
    <rect id="Rectangle_88" data-name="Rectangle 88" width="21.633" height="9.915" transform="translate(595.925 286.084)" fill="#ccc"/>
    <rect id="Rectangle_89" data-name="Rectangle 89" width="21.633" height="9.915" transform="translate(595.925 329.348)" fill="#ccc"/>
    <rect id="Rectangle_90" data-name="Rectangle 90" width="21.633" height="85.629" transform="matrix(-0.896, -0.444, 0.444, -0.896, 525.33, 358.547)" fill="#e6e6e6"/>
    <rect id="Rectangle_91" data-name="Rectangle 91" width="21.633" height="9.915" transform="matrix(-0.896, -0.444, 0.444, -0.896, 552.924, 302.81)" fill="#ccc"/>
    <rect id="Rectangle_92" data-name="Rectangle 92" width="21.633" height="9.915" transform="matrix(-0.896, -0.444, 0.444, -0.896, 533.728, 341.583)" fill="#ccc"/>
    <path id="Path_674" data-name="Path 674" d="M742.3,306.129,731.408,325l-10.894,18.87h43.575L753.195,325Z" transform="translate(1.897 0.805)" fill="#e6e6e6"/>
    <path id="Path_675" data-name="Path 675" d="M723.422,309.725l-10.894,18.869-10.894,18.87H745.21l-10.894-18.87Z" transform="translate(1.847 0.815)" fill="#e6e6e6"/>
    <ellipse id="Ellipse_79" data-name="Ellipse 79" cx="6.309" cy="6.309" rx="6.309" ry="6.309" transform="translate(711.299 292.393)" fill="#e6e6e6"/>
    <ellipse id="Ellipse_80" data-name="Ellipse 80" cx="398.174" cy="28.279" rx="398.174" ry="28.279" transform="translate(0 535.912)" fill="#e6e6e6" opacity="0.5"/>
    <path id="Path_676" data-name="Path 676" d="M906.925,733.274c-64.926-11.556-135.924-9.635-210.4,0,33.945-28.656,63.241-57.313,29.3-85.97,66.213,13.66,75.487,12.277,149.144,0C857.883,675.96,889.842,704.617,906.925,733.274Z" transform="translate(-197.677 -153.245)" fill="#d83d21"/>
    <path id="Path_677" data-name="Path 677" d="M906.925,733.274c-64.926-11.556-135.924-9.635-210.4,0,33.945-28.656,63.241-57.313,29.3-85.97,66.213,13.66,75.487,12.277,149.144,0C857.883,675.96,889.842,704.617,906.925,733.274Z" transform="translate(-197.677 -153.245)" opacity="0.2"/>
    <path id="Path_678" data-name="Path 678" d="M891.047,721.034c-55.152-9.224-115.462-7.691-178.726,0,28.835-22.874,53.721-45.748,24.886-68.622,56.246,10.9,64.124,9.8,126.692,0C849.387,675.286,876.535,698.16,891.047,721.034Z" transform="translate(-197.635 -153.232)" fill="#d83d21"/>
    <ellipse id="Ellipse_81" data-name="Ellipse 81" cx="29.386" cy="29.386" rx="29.386" ry="29.386" transform="translate(643.019 472.174)" fill="#2f2e41"/>
    <path id="Path_679" data-name="Path 679" d="M537.677,466.249l20.361,3.394,10.181,29.41-29.41,18.1-33.936-50.9h32.8Z" transform="translate(1.329 1.227)" fill="#a0616a"/>
    <ellipse id="Ellipse_82" data-name="Ellipse 82" cx="47.51" cy="47.51" rx="47.51" ry="47.51" transform="translate(549.187 417.704)" fill="#a0616a"/>
    <path id="Path_680" data-name="Path 680" d="M532.828,445.919S417.449,458.362,397.087,456.1s-29.411-4.525-29.411-4.525-13.574,18.1-6.787,26.017A48.952,48.952,0,0,0,374.464,488.9s12.443-3.394,21.492,0,100.675,18.1,116.511,4.525S532.828,445.919,532.828,445.919Z" transform="translate(-198.565 -153.775)" fill="#2f2e41"/>
    <path id="Path_681" data-name="Path 681" d="M540.716,698.061s-75.789-21.492-89.363-116.511V572.5s-15,26.307-20.362,31.673c-6.221,6.221-28.279,62.215-27.148,67.871s0,7.918,0,7.918l-32.8-3.394V666.388s17.533-52.6,18.664-65.043,43.55-98.978,43.55-98.978,15.836-32.8,42.985,0,29.411,55.428,29.411,55.428l35.067,67.871Z" transform="translate(-198.534 -153.665)" fill="#2f2e41"/>
    <path id="Path_682" data-name="Path 682" d="M371.2,448.237l-36.2-12.443s-33.935-24.886-26.017,0,44.116,79.182,54.3,73.527,22.424-19.695,19.7-21.725S362.156,470.86,371.2,448.237Z" transform="translate(-198.7 -153.831)" fill="#2f2e41"/>
    <path id="Path_683" data-name="Path 683" d="M375.535,659.259l-29.221,14.27s-35.336,5.436-15.63,15.63,74.071,21.066,76.789,11.552,1.64-25.3-1.219-24.883S383.69,678.286,375.535,659.259Z" transform="translate(-198.656 -153.214)" fill="#2f2e41"/>
    <path id="Path_684" data-name="Path 684" d="M525.614,623.128s-14.705,63.346,10.181,76.92S734.883,715.885,748.456,691s6.787-24.886,6.787-24.886l-36.2-40.722,29.411-2.262s0-9.049-10.181-10.181-41.854-12.443-69-4.525-42.985-15.836-42.985-15.836Z" transform="translate(-198.138 -153.389)" fill="#575a89"/>
    <path id="Path_685" data-name="Path 685" d="M307.487,271.084l-19.23,105.2,132.349-15.837,23.754-95.02Z" transform="translate(0.759 0.698)" fill="#3f3d56"/>
    <path id="Path_686" data-name="Path 686" d="M311.428,275.033,295.591,368.92l120.47-14.139,23.189-85.4Z" transform="translate(0.778 0.708)" fill="#fff"/>
    <path id="Path_687" data-name="Path 687" d="M292.788,377.124l-4.525-1.131L286,380.517l36.2,100.675,3.4-1.3,1.12-6.616Z" transform="translate(0.753 0.989)" fill="#b3b3b3"/>
    <path id="Path_688" data-name="Path 688" d="M288.257,374.9l36.2,105.2,136.872-20.361L420.605,360.2Z" transform="translate(0.759 0.948)" fill="#d0cde1"/>
    <path id="Path_689" data-name="Path 689" d="M306.309,371.51v5.656l100.674-11.312-1.131-5.656Z" transform="translate(0.806 0.948)" fill="#3f3d56"/>
    <path id="Path_690" data-name="Path 690" d="M308.565,382.789,324.4,426.9l102.937-12.443-18.1-41.854Z" transform="translate(0.812 0.98)" fill="#3f3d56"/>
    <path id="Path_691" data-name="Path 691" d="M636.287,599.477l-3.394-9.049s-26.017-45.247-39.591-36.2S621.582,607.4,621.582,607.4h13.574Z" transform="translate(-197.956 -153.493)" fill="#a0616a"/>
    <path id="Path_692" data-name="Path 692" d="M550.44,606.264l-3.394-13.574S538,550.836,553.833,553.1s20.361,41.854,20.361,41.854L573.063,604Z" transform="translate(-198.077 -153.494)" fill="#a0616a"/>
    <path id="Path_693" data-name="Path 693" d="M577.583,600.487s-29.411-4.525-30.542,2.262-6.787,108.593,21.492,111.987,168.546,18.1,153.84-16.968-37.329-30.542-37.329-30.542L588.9,677.408Z" transform="translate(-198.073 -153.372)" fill="#575a89"/>
    <path id="Path_694" data-name="Path 694" d="M467.209,458.971l-29.976-20.927-19.8,15.271,24.886,27.148Z" transform="translate(1.099 1.152)" fill="#575a89"/>
    <path id="Path_695" data-name="Path 695" d="M386.976,479.224l4.524,42.985,78.052-4.525-67.871-1.131Z" transform="translate(1.019 1.261)" opacity="0.2"/>
    <ellipse id="Ellipse_83" data-name="Ellipse 83" cx="56.559" cy="56.559" rx="56.559" ry="56.559" transform="translate(563.59 417.288)" fill="#2f2e41"/>
    <path id="Path_696" data-name="Path 696" d="M328.309,307.81l70.133-2.441,6.787-25.838-72.4,2.185Z" transform="translate(0.864 0.735)" fill="#d83d21"/>
    <path id="Path_697" data-name="Path 697" d="M310.258,322.424l106.33-3.394,1.131-4.525-106.33,3.744Z" transform="translate(0.817 0.827)" fill="#e6e6e6"/>
    <path id="Path_698" data-name="Path 698" d="M308,333.706l106.331-3.394,1.131-4.525-106.331,3.744Z" transform="translate(0.811 0.857)" fill="#e6e6e6"/>
    <path id="Path_699" data-name="Path 699" d="M306.873,342.731l106.33-3.393,1.132-4.525L308,338.556Z" transform="translate(0.808 0.881)" fill="#e6e6e6"/>
  </g>
</svg>
