<svg xmlns="http://www.w3.org/2000/svg" width="828" height="649" viewBox="0 0 828 649">
  <g id="Group_50" data-name="Group 50" transform="translate(0 -0.06)">
    <path id="Path_853" data-name="Path 853" d="M366.769,249.137l-98.124,81.376a44.438,44.438,0,1,1-68.339,56.674l-87.973,72.956L253.353,630.185l254.435-211Z" transform="translate(-97.334 -88.701)" fill="#f2f2f2"/>
    <path id="Path_854" data-name="Path 854" d="M1046.688,499.515c0,100.5-59.749,135.6-133.452,135.6s-133.453-35.093-133.453-135.6S913.236,271.151,913.236,271.151,1046.688,399.009,1046.688,499.515Z" transform="translate(-218.688 -92.704)" fill="#f2f2f2"/>
    <path id="Path_855" data-name="Path 855" d="M831.031,566.737l1.366-84.113,56.881-104.06-56.666,90.866.615-37.821,39.2-75.287L833.389,421.6h0l1.1-68.023,41.978-59.937-41.8,49.241.691-124.729-4.34,165.12.357-6.812L788.7,311.131l42,78.4-3.977,75.97-.118-2.017-49.2-68.749,49.052,75.872-.5,9.5-.089.142.04.78L815.812,673.776h13.48l1.617-99.555,48.933-75.686Z" transform="translate(-141.345 -39.704)" fill="#3f3d56"/>
    <ellipse id="Ellipse_115" data-name="Ellipse 115" cx="186.5" cy="13.5" rx="186.5" ry="13.5" transform="translate(392 622.06)" fill="#e6e6e6"/>
    <rect id="Rectangle_104" data-name="Rectangle 104" width="30" height="639" transform="translate(566 0.06)" fill="#3f3d56"/>
    <path id="Path_856" data-name="Path 856" d="M997.621,792.829c0,18.383-10.928,24.8-24.41,24.8q-.468,0-.935-.01c-.625-.013-1.243-.043-1.855-.085-12.167-.861-21.62-7.61-21.62-24.707,0-17.693,22.61-40.019,24.308-41.672l0,0,.1-.1S997.621,774.446,997.621,792.829Z" transform="translate(-249.419 -179.96)" fill="#d83d21"/>
    <path id="Path_857" data-name="Path 857" d="M975.372,814.819l8.928-12.475-8.95,13.844-.024,1.432c-.625-.013-1.243-.043-1.854-.085l.962-18.392-.007-.143.016-.027.091-1.737-8.972-13.879,9,12.575.021.369.727-13.9-7.681-14.341,7.775,11.9.757-28.81,0-.1v.1l-.126,22.719,7.647-9.006-7.678,10.964-.2,12.442,7.14-11.941-7.17,13.772-.113,6.917,10.366-16.62-10.4,19.033Z" transform="translate(-252.466 -179.96)" fill="#3f3d56"/>
    <path id="Path_858" data-name="Path 858" d="M741.75,784.428l-5.221-3.879s-3.456,19.306.4,22.2,18.32,7.714,18.32,13.5,32.783,13.5,33.747,4.821-2.893-13.5-2.893-13.5-15.427-15.427-17.355-18.32S762,780.571,762,780.571Z" transform="translate(-210.565 -185.322)" fill="#2f2e41"/>
    <path id="Path_859" data-name="Path 859" d="M818.688,489.5s-.145.848-.4,2.4c-.232,1.379-.55,3.326-.935,5.727-4.05,24.712-15.861,97.461-15.061,99.861.964,2.893,7.714,13.5,0,16.391a5.981,5.981,0,0,0-2.4,2.613,56.038,56.038,0,0,0-4.079,9.623c-4.6,13.345-9.517,34.7-12.361,49.492-1.244,6.5-2.092,11.725-2.343,14.463a7.864,7.864,0,0,0-.029,1.909c.964,3.857-5.785,17.356-8.678,21.212s-7.714,7.714-6.749,11.57-24.1,14.463-27,7.714-2.893-10.606-3.857-12.535-1.928-15.427,2.893-17.355,1.928-35.675,6.749-42.425c1.61-2.247,4.069-9.854,6.643-19,1.012-3.587,2.034-7.4,3.037-11.233,4.069-15.687,7.675-31.471,7.675-31.471l-.964-112.811,53.031-6.749,1.359,3,2.709,5.949Z" transform="translate(-210.367 -130.475)" fill="#2f2e41"/>
    <path id="Path_860" data-name="Path 860" d="M838.682,717.356s7.714-7.714,11.57,0,7.714,37.6,14.463,44.353,15.427,40.5,5.785,42.425-20.248-2.893-21.212-8.678-21.212-35.676-21.212-38.568,13.5-13.5,13.5-13.5Z" transform="translate(-227.469 -173.209)" fill="#2f2e41"/>
    <path id="Path_861" data-name="Path 861" d="M696.088,426.449s12.535,112.811,15.427,123.417,18.32,51.1,23.141,57.852,35.675,61.708,39.532,64.6,11.57,10.606,11.57,10.606,14.463,14.463,16.391,17.355,18.32-5.785,19.284-11.57-.964-15.427-1.928-19.284,1.928-9.642-.964-12.535-17.355-17.355-17.355-24.1-25.069-46.281-34.711-54.959-7.714-23.141-7.714-23.141V495.871l53.031-16.391S808.9,433.2,802.149,433.2,706.694,417.772,696.088,426.449Z" transform="translate(-203.471 -120.459)" fill="#2f2e41"/>
    <circle id="Ellipse_116" data-name="Ellipse 116" cx="31.818" cy="31.818" r="31.818" transform="translate(538.899 81.334)" fill="#9f616a"/>
    <path id="Path_862" data-name="Path 862" d="M776.465,218.338s-3.857,14.463-8.678,18.32,12.535,20.248,12.535,20.248l32.783,1.928,5.785-18.32S808.283,219.3,811.176,205.8,776.465,218.338,776.465,218.338Z" transform="translate(-216.353 -80.117)" fill="#9f616a"/>
    <path id="Path_863" data-name="Path 863" d="M750.692,242.02s8.678.964,10.606,3.857,15.427,11.57,26.033,9.642,17.356-4.821,19.284-3.857,5.785,21.212,5.785,21.212l-10.606,30.854,1.928,84.849,2.893,23.141S812.4,404,789.26,408.826s-53.031-3.857-62.673-4.821-26.033-3.857-27-9.642,2.893-27,2.893-27l15.427-64.6,9.642-34.711Z" transform="translate(-204.079 -87.407)" fill="#3f3d56"/>
    <path id="Path_864" data-name="Path 864" d="M755.568,236.241s-8.156-4.326-11.049-.469-39.532,9.642-39.532,12.535-7.714,80.992-5.785,87.742-3.857,14.463-3.857,14.463l-6.75,28.926s-18.32,54.959-10.606,56.888,14.463,0,17.355,0,1.928-36.639,9.642-46.281,18.32-33.747,20.248-38.568,26.033-71.35,25.069-79.064S755.568,236.241,755.568,236.241Z" transform="translate(-199.836 -85.98)" fill="#d0cde1"/>
    <path id="Path_865" data-name="Path 865" d="M817.6,242.02s7.714,0,8.678,1.928,10.606,14.463,14.463,17.355,17.355,15.427,17.355,18.32-27.962,24.1-27.962,24.1-11.57,56.888-5.785,76.171,14.463,65.565,10.606,68.458-12.535,3.857-12.535,0-5.785-45.317-10.606-53.995-19.284-63.637-13.5-79.064S817.6,242.02,817.6,242.02Z" transform="translate(-221.813 -87.407)" fill="#d0cde1"/>
    <path id="Path_866" data-name="Path 866" d="M666.622,358.687s-.964,29.89,9.642,45.317a183.235,183.235,0,0,1,17.355,32.783s17.356-4.821,20.248-10.606,21.212-.964,21.212-2.893-22.177-11.57-24.1-13.5S702.3,407.861,698.44,404s-4.821-12.535-4.821-12.535L689.762,366.4Z" transform="translate(-198.109 -108.62)" fill="#9f616a"/>
    <path id="Path_867" data-name="Path 867" d="M762.157,160.755a18.336,18.336,0,0,1-7.136-1.634c-4.847-2.614-6.133-10.059-2.443-14.147a18.282,18.282,0,0,1,3.39-2.726l7.329-4.989c3.241-2.206,6.56-4.449,10.34-5.489a32.279,32.279,0,0,1,10.571-.624c6.872.427,13.786,1.309,20.249,3.682s12.492,6.342,16.406,12.005c6.206,8.979,6.291,21.089,2.873,31.454s-9.91,19.392-16.307,28.235l-3.319-16.2c-.3-1.443-.678-3.024-1.878-3.877-2.982-2.122-6.629,2.235-10.289,2.207-2.352-.018-4.326-1.952-5.217-4.128a23.531,23.531,0,0,1-1.156-6.929c-.437-4.962-2.171-11.865-6.87-14.6C774.322,160.449,767.078,161.2,762.157,160.755Z" transform="translate(-213.354 -67.222)" fill="#2f2e41"/>
    <path id="Path_868" data-name="Path 868" d="M766.94,492.738s3.257,94.195,5.185,97.088,0-97.384,0-97.384Z" transform="translate(-216.353 -132.939)" opacity="0.1"/>
    <path id="Path_869" data-name="Path 869" d="M709.36,251.447h-7.713S668.863,295.8,672.72,298.693s0,10.606,0,10.606l-7.714,14.463s-9.642,8.678-6.749,10.606,6.749,9.642,6.749,9.642,19.284-2.893,25.069,8.678L702.581,336.9Z" transform="translate(-196.494 -89.121)" fill="#d0cde1"/>
    <path id="Path_870" data-name="Path 870" d="M801.511,341.072s-21.212.964-45.317-14.463L732.089,316s-21.212-32.783-23.141-27,2.893,17.356,2.893,17.356-29.091,13.463-29.847,15.242,16.348-2.708,16.348-2.708-2.893,18.32,13.5,19.284,21.212-2.893,21.212-2.893,69.422,57.852,80.992,39.532S801.511,341.072,801.511,341.072Z" transform="translate(-200.904 -95.826)" fill="#9f616a"/>
    <path id="Path_871" data-name="Path 871" d="M852.046,283.266l10.606,3.857v28.926l3.857,5.785s-.964,11.57-3.857,14.463-8.678,1.928-6.749,8.678a36.545,36.545,0,0,1,.964,13.5s-17.356,22.176-18.32,19.284-14.463-38.568-16.391-38.568,19.284-55.923,19.284-55.923Z" transform="translate(-226.37 -94.907)" fill="#d0cde1"/>
    <path id="Path_872" data-name="Path 872" d="M702.33,458.076s-9.97-9.642-4.985-10.124,22.34-10.124,25.233-5.3S702.33,458.076,702.33,458.076Z" transform="translate(-203.446 -123.641)" fill="#2f2e41"/>
    <path id="Path_873" data-name="Path 873" d="M440.677,745.273a185.663,185.663,0,0,0,26.413-95.727C467.091,546.519,383.572,463,280.545,463S94,546.519,94,649.545a185.663,185.663,0,0,0,26.414,95.727Z" transform="translate(-94 -127.586)" fill="#3f3d56"/>
    <ellipse id="Ellipse_117" data-name="Ellipse 117" cx="17.5" cy="18.5" rx="17.5" ry="18.5" transform="translate(169 491.06)" fill="#d83d21"/>
    <ellipse id="Ellipse_118" data-name="Ellipse 118" cx="8.5" cy="9" rx="8.5" ry="9" transform="translate(35 530.06)" fill="#d83d21"/>
    <circle id="Ellipse_119" data-name="Ellipse 119" cx="9" cy="9" r="9" transform="translate(39.644 452.19)" fill="#d83d21"/>
    <circle id="Ellipse_120" data-name="Ellipse 120" cx="9" cy="9" r="9" transform="translate(84.318 388.093)" fill="#d83d21"/>
    <circle id="Ellipse_121" data-name="Ellipse 121" cx="9" cy="9" r="9" transform="translate(155.625 356.16)" fill="#d83d21"/>
    <circle id="Ellipse_122" data-name="Ellipse 122" cx="9" cy="9" r="9" transform="translate(233.192 365.513)" fill="#d83d21"/>
    <circle id="Ellipse_123" data-name="Ellipse 123" cx="9" cy="9" r="9" transform="translate(294.864 413.481)" fill="#d83d21"/>
    <circle id="Ellipse_124" data-name="Ellipse 124" cx="9" cy="9" r="9" transform="translate(323.021 486.361)" fill="#d83d21"/>
    <circle id="Ellipse_125" data-name="Ellipse 125" cx="9" cy="9" r="9" transform="translate(309.622 563.333)" fill="#d83d21"/>
    <line id="Line_33" data-name="Line 33" y1="71" x2="92" transform="translate(187 439.06)" fill="none" stroke="#d83d21" stroke-miterlimit="10" stroke-width="4"/>
    <circle id="Ellipse_126" data-name="Ellipse 126" cx="12.073" cy="12.073" r="12.073" transform="translate(260.007 150.175)" fill="none" stroke="#3f3d56" stroke-miterlimit="10" stroke-width="2"/>
    <circle id="Ellipse_127" data-name="Ellipse 127" cx="12.073" cy="12.073" r="12.073" transform="translate(328.734 290.902)" fill="#3f3d56"/>
    <circle id="Ellipse_128" data-name="Ellipse 128" cx="34.999" cy="34.999" r="34.999" transform="translate(102.637 235.914)" fill="#f2f2f2"/>
  </g>
</svg>
