<svg xmlns="http://www.w3.org/2000/svg" width="830.64" height="483.719" viewBox="0 0 830.64 483.719">
  <g id="Group_40" data-name="Group 40" transform="translate(0 -138.835)">
    <ellipse id="Ellipse_84" data-name="Ellipse 84" cx="415.32" cy="65.159" rx="415.32" ry="65.159" transform="translate(0 492.236)" fill="#e6e6e6"/>
    <ellipse id="Ellipse_85" data-name="Ellipse 85" cx="20.563" cy="3.958" rx="20.563" ry="3.958" transform="translate(713.115 526.055)" fill="#d83d21"/>
    <ellipse id="Ellipse_86" data-name="Ellipse 86" cx="2.398" cy="3.137" rx="2.398" ry="3.137" transform="translate(730.939 525.201)" fill="#3f3d56"/>
    <ellipse id="Ellipse_87" data-name="Ellipse 87" cx="2.398" cy="3.137" rx="2.398" ry="3.137" transform="translate(730.939 521.365)" fill="#3f3d56"/>
    <ellipse id="Ellipse_88" data-name="Ellipse 88" cx="2.398" cy="3.137" rx="2.398" ry="3.137" transform="translate(730.939 517.537)" fill="#3f3d56"/>
    <ellipse id="Ellipse_89" data-name="Ellipse 89" cx="2.398" cy="3.137" rx="2.398" ry="3.137" transform="translate(730.939 513.709)" fill="#3f3d56"/>
    <ellipse id="Ellipse_90" data-name="Ellipse 90" cx="2.398" cy="3.137" rx="2.398" ry="3.137" transform="translate(730.939 509.873)" fill="#3f3d56"/>
    <ellipse id="Ellipse_91" data-name="Ellipse 91" cx="2.398" cy="3.137" rx="2.398" ry="3.137" transform="translate(730.939 506.045)" fill="#3f3d56"/>
    <ellipse id="Ellipse_92" data-name="Ellipse 92" cx="2.398" cy="3.137" rx="2.398" ry="3.137" transform="translate(730.939 502.217)" fill="#3f3d56"/>
    <path id="Path_702" data-name="Path 702" d="M997.572,666.763a11.035,11.035,0,0,0,.894-1.317l-6.291-1.032,6.8.049a11.509,11.509,0,0,0,.219-9.087l-9.127,4.738,8.42-6.193a11.476,11.476,0,1,0-18.945,12.842,11.727,11.727,0,0,0-1.309,2.089l8.128,4.243-8.7-2.926a11.452,11.452,0,0,0,1.845,10.769,11.468,11.468,0,1,0,18.027,0,11.46,11.46,0,0,0,0-14.175Z" transform="translate(-255.279 -187.62)" fill="#d83d21"/>
    <path id="Path_703" data-name="Path 703" d="M977.1,679.731a11.42,11.42,0,0,0,2.438,7.087,11.468,11.468,0,1,0,18.027,0C999.114,684.868,977.1,678.447,977.1,679.731Z" transform="translate(-255.284 -193.502)" opacity="0.1"/>
    <rect id="Rectangle_93" data-name="Rectangle 93" width="490.094" height="112.567" transform="translate(167.835 429.117)" fill="#46455b"/>
    <path id="Path_704" data-name="Path 704" d="M199.827,413.5,153.5,448.449l35.761,32.51,20.319-32.51L237.214,413.5Z" transform="translate(-28.741 -101.014)" fill="#46455b"/>
    <path id="Path_705" data-name="Path 705" d="M788.453,458.2l-6.5-7.315L740.5,427.313l38.2-.813,59.331,24.383-24.383,15.442Z" transform="translate(-138.651 -103.448)" fill="#46455b"/>
    <path id="Path_706" data-name="Path 706" d="M205.564,457.389,246.2,413.5V514.282l-27.634,22.757L201.5,513.469Z" transform="translate(-37.729 -101.014)" fill="#46455b"/>
    <path id="Path_707" data-name="Path 707" d="M789.266,477.891l-7.315-26.821-13.817-17.881L740.5,427.5V539.661h56.08Z" transform="translate(-138.651 -103.635)" fill="#46455b"/>
    <path id="Path_708" data-name="Path 708" d="M264.638,376.5H644.116a12.638,12.638,0,0,1,12.638,12.638V504.916H252V389.138A12.638,12.638,0,0,1,264.638,376.5Z" transform="translate(-47.185 -94.086)" fill="#46455b"/>
    <path id="Path_709" data-name="Path 709" d="M222.5,557.636,250.134,523.5H643.51l41.451,34.136Z" transform="translate(-41.661 -121.611)" fill="#46455b"/>
    <path id="Path_710" data-name="Path 710" d="M222.5,557.636,250.134,523.5H643.51l41.451,34.136Z" transform="translate(-41.661 -121.611)" opacity="0.05"/>
    <rect id="Rectangle_94" data-name="Rectangle 94" width="56.08" height="194.25" transform="translate(124.759 347.435)" fill="#46455b"/>
    <rect id="Rectangle_95" data-name="Rectangle 95" width="56.08" height="194.25" transform="translate(124.759 347.435)" fill="#fff" opacity="0.05"/>
    <rect id="Rectangle_96" data-name="Rectangle 96" width="56.08" height="194.25" transform="translate(643.299 347.435)" fill="#46455b"/>
    <rect id="Rectangle_97" data-name="Rectangle 97" width="56.08" height="194.25" transform="translate(643.299 347.435)" fill="#fff" opacity="0.05"/>
    <ellipse id="Ellipse_93" data-name="Ellipse 93" cx="65" cy="86" rx="65" ry="86" transform="translate(292 139.904)" fill="#2f2e41"/>
    <rect id="Rectangle_98" data-name="Rectangle 98" width="72" height="101" transform="translate(314 188.904)" fill="#2f2e41"/>
    <rect id="Rectangle_99" data-name="Rectangle 99" width="72" height="101" transform="translate(314 188.904)" opacity="0.1"/>
    <path id="Path_711" data-name="Path 711" d="M477.092,379.578a21.2,21.2,0,0,1-18.937,7.591c-.325,5.055,3.1,9.493,6.348,13.386l25.382,30.454a1.422,1.422,0,0,0,2.52.211l38.769-36.777c-3.869,1.626-8.445-.951-10.566-4.576s-2.333-7.981-2.528-12.191q-.423-9.428-.813-18.84c-.065-1.4-.2-2.942-1.235-3.885a5.3,5.3,0,0,0-2.763-1.048c-6.12-1.048-25.2-6.5-28.731-.065-1.625,2.934-.894,8.656-1.625,11.972C481.815,370.727,480.262,375.628,477.092,379.578Z" transform="translate(-158.117 -131.934)" fill="#fbbebe"/>
    <path id="Path_712" data-name="Path 712" d="M477.092,379.578a21.2,21.2,0,0,1-18.937,7.591c-.325,5.055,3.1,9.493,6.348,13.386l25.382,30.454a1.422,1.422,0,0,0,2.52.211l38.769-36.777c-3.869,1.626-8.445-.951-10.566-4.576s-2.333-7.981-2.528-12.191q-.423-9.428-.813-18.84c-.065-1.4-.2-2.942-1.235-3.885a5.3,5.3,0,0,0-2.763-1.048c-6.12-1.048-25.2-6.5-28.731-.065-1.625,2.934-.894,8.656-1.625,11.972C481.815,370.727,480.262,375.628,477.092,379.578Z" transform="translate(-158.117 -131.934)" opacity="0.1"/>
    <circle id="Ellipse_94" data-name="Ellipse 94" cx="38" cy="38" r="38" transform="translate(309 165.904)" fill="#fbbebe"/>
    <path id="Path_713" data-name="Path 713" d="M476.287,415.788l-6.128-19.319c-2.438-7.737-5.9-16.507-13.622-19-4.877-1.561-10.135-.13-15.215-.561-9.883-.853-19.506-8.713-28.747-5.112-11.379,4.421-11.281,21.9-21.384,28.755,0,16.328,5.275,31.494,8.128,47.563s3.674,33.413-3.771,47.953c-3.154,6.161-7.664,11.525-11.029,17.572a54.577,54.577,0,0,0-6.453,32.738q64.712.813,129.44.39c-.4-5.592-2.893-11.1-3.3-16.694a11.548,11.548,0,0,1,.39-5.039c.951-2.438,3.373-3.893,5.445-5.478a28.08,28.08,0,0,0,6.933-7.786c2.877-4.787,4.242-10.306,5.575-15.735L538.707,430.2c1.926-7.843,3.8-16.4.447-23.749-3.674-8.071-12.484-12.265-20.62-15.8-4.877-2.138-10.485-4.3-15.443-2.333-4.064,1.626-6.616,5.519-9.184,9.046A89.939,89.939,0,0,1,476.287,415.788Z" transform="translate(-143.056 -135.699)" fill="#f86d70"/>
    <path id="Path_714" data-name="Path 714" d="M389.415,413.861c-1.268,4.746-.561,9.818-1.5,14.63-1.569,8.054-7.445,14.459-11.379,21.644a49.229,49.229,0,0,0-4.308,36.509c.992,3.584,2.755,7.421,6.234,8.737,2.487.951,5.267.358,7.924.593,3.511.309,7.16,2.048,10.4.667,4.007-1.707,4.8-6.917,5.242-11.249a131.788,131.788,0,0,1,6.445-29.5c3.251-9.558,7.713-19.043,7.648-29.145-.049-7.12-9.168-.569-15.117-4.787C394.3,417.234,391.618,405.661,389.415,413.861Z" transform="translate(-141.71 -143.216)" opacity="0.1"/>
    <path id="Path_715" data-name="Path 715" d="M387.415,411.538c-1.268,4.746-.561,9.818-1.5,14.63-1.569,8.054-7.445,14.459-11.379,21.644a49.229,49.229,0,0,0-4.308,36.509c.992,3.584,2.755,7.421,6.234,8.737,2.487.951,5.267.358,7.924.593,3.511.309,7.16,2.048,10.4.666,4.007-1.707,4.8-6.917,5.242-11.249a131.78,131.78,0,0,1,6.445-29.5c3.251-9.558,7.713-19.043,7.648-29.145-.049-7.12-3.178-14.987-9.127-19.206C398.29,400.493,389.618,403.337,387.415,411.538Z" transform="translate(-141.336 -141.706)" fill="#f86d70"/>
    <path id="Path_716" data-name="Path 716" d="M446.445,353.475c4.877-2.731,9.68-5.689,14.7-8.225,7.851-3.926,16.678-6.99,22.855-13a2.576,2.576,0,0,1,4.243,1.114,240.108,240.108,0,0,0,9.42,25.456c3.121,7.152,6.6,14.174,8.94,21.619,1.625,5.177,2.641,10.566,4.665,15.548,2.641,6.5,6.86,12.289,11.045,17.962a22.864,22.864,0,0,0,5.275,5.689c3.023,2.056,7.534,3.373,7.851,7.014-3.926,2.837-9.266,1.9-14.1,1.861a59.443,59.443,0,0,0-14.532,2.138,87.545,87.545,0,0,0-16.255,5.429,115.012,115.012,0,0,0-14.467,8.688l-43.214,28.991c-3.178-3.633-3.056-8.94-3.739-13.752a71.521,71.521,0,0,0-2.5-10.216l-4.308-14.508c-2.048-6.892-4.064-13.776-6.372-20.6-1.9-5.689-4.015-11.436-7.737-16.133-4.486-5.689-10.94-9.379-16.54-13.955-1.983-1.626-3.942-3.479-4.682-5.933a5.8,5.8,0,0,1,.65-4.812c1.187-1.715,2.885-1.463,4.771-1.764q6.9-1.1,13.687-2.771a165.806,165.806,0,0,0,26.228-8.892Q439.552,357.3,446.445,353.475Z" transform="translate(-144.748 -128.337)" fill="#bbbdc8"/>
    <path id="Path_717" data-name="Path 717" d="M450.385,361.525c4.283-2.373,8.445-4.974,12.825-7.169,6.86-3.43,14.548-6.1,19.937-11.322a2.243,2.243,0,0,1,3.706.967,208.87,208.87,0,0,0,8.217,22.2c2.723,6.242,5.754,12.37,7.778,18.864,1.4,4.511,2.3,9.184,4.064,13.565,2.3,5.689,5.99,10.72,9.631,15.67a20.131,20.131,0,0,0,4.6,4.958c2.65,1.8,6.583,2.942,6.852,6.128-3.422,2.438-8.079,1.626-12.3,1.626a50.825,50.825,0,0,0-12.671,1.869,75.742,75.742,0,0,0-14.166,4.738,97,97,0,0,0-12.622,7.607l-37.7,25.253c-2.771-3.17-2.658-7.827-3.251-12a62.431,62.431,0,0,0-2.178-8.94l-3.763-12.655c-1.788-6.014-3.576-12.021-5.559-17.97-1.625-4.966-3.495-9.973-6.746-14.077-3.918-4.95-9.542-8.176-14.435-12.191-1.723-1.406-3.438-3.032-4.064-5.169a5.047,5.047,0,0,1,.569-4.194c1.032-1.5,2.52-1.284,4.161-1.544q6.023-.951,11.939-2.438a143.6,143.6,0,0,0,22.879-7.754Q444.387,364.833,450.385,361.525Z" transform="translate(-146.917 -130.372)" opacity="0.1"/>
    <circle id="Ellipse_95" data-name="Ellipse 95" cx="3.251" cy="3.251" r="3.251" transform="translate(284.441 257.738)" fill="#bbbdc8"/>
    <circle id="Ellipse_96" data-name="Ellipse 96" cx="3.251" cy="3.251" r="3.251" transform="translate(319.106 241.686)" fill="#bbbdc8"/>
    <circle id="Ellipse_97" data-name="Ellipse 97" cx="3.251" cy="3.251" r="3.251" transform="translate(300.835 293.142)" fill="#bbbdc8"/>
    <circle id="Ellipse_98" data-name="Ellipse 98" cx="3.251" cy="3.251" r="3.251" transform="translate(335.499 277.09)" fill="#bbbdc8"/>
    <path id="Path_718" data-name="Path 718" d="M397.016,466.534c3.251-.935,6.673-1.959,9.062-4.356,1.853-1.869,2.885-4.381,4.186-6.673,2.593-4.576,6.7-8.632,11.858-9.639s11.224,1.975,12.33,7.12c.715,3.349-.683,6.754-2.073,9.891-2.081,4.7-4.43,9.623-8.721,12.46-3.755,2.479-8.542,3.023-12.232,5.6-3.251,2.276-5.3,5.876-8.128,8.68a21.482,21.482,0,0,1-13.768,6.136,4.658,4.658,0,0,1-2.316-.317,5.112,5.112,0,0,1-1.756-1.731c-2.39-3.251-4.812-6.6-6.079-10.444C374.966,469.858,387.458,469.273,397.016,466.534Z" transform="translate(-143.2 -149.708)" fill="#fbbebe"/>
    <path id="Path_719" data-name="Path 719" d="M502.074,467.553c-1.1-6.551-1.244-13.7-5.291-18.962-3.389-4.4-9.022-6.624-14.565-7-1.626-.114-3.536.049-4.478,1.382a4.958,4.958,0,0,0-.609,3.1,37.493,37.493,0,0,0,8.827,22.66c2.024,2.373,4.373,4.535,5.787,7.315,1.235,2.4,1.691,5.137,2.837,7.575,1.5,3.178,4.064,5.689,6.031,8.615a24.782,24.782,0,0,1,4.145,14.167c2.146-3.5,1.886-7.884,2.089-11.988.268-5.779,4.316-8.94,1.69-13.654S503.025,473.283,502.074,467.553Z" transform="translate(-161.666 -148.939)" fill="#fbbebe"/>
    <path id="Path_720" data-name="Path 720" d="M533.5,462.672c-2.056,5.364-3.113,11.1-5.535,16.312a9.1,9.1,0,0,1-3.153,4.064c-2.6,1.626-6.039.618-8.623-1s-4.877-3.844-7.7-4.917c-1.268,12.346-11.525,23.212-23.781,25.2,7.315,6.721,15.02,14.191,16.67,23.976.309,1.8.414,3.706,1.374,5.258,1.544,2.479,4.8,3.292,7.729,3.251,7.437-.057,14.256-3.983,20.465-8.128a19.092,19.092,0,0,0,5.616-4.942,20.486,20.486,0,0,0,2.528-7.242q5.388-25.61,10.769-51.245c.975-4.641.813-13.76-6.388-12.842C538.588,451.13,535.012,458.746,533.5,462.672Z" transform="translate(-163.093 -150.584)" opacity="0.1"/>
    <path id="Path_721" data-name="Path 721" d="M535.5,462.672c-2.056,5.364-3.113,11.1-5.535,16.312a9.1,9.1,0,0,1-3.154,4.064c-2.6,1.626-6.039.618-8.623-1s-4.877-3.844-7.7-4.917c-1.268,12.346-11.525,23.212-23.781,25.2,7.315,6.721,15.02,14.191,16.67,23.976.309,1.8.414,3.706,1.374,5.258,1.544,2.479,4.8,3.292,7.729,3.251,7.437-.057,14.256-3.983,20.465-8.128a19.094,19.094,0,0,0,5.616-4.942,20.486,20.486,0,0,0,2.528-7.242q5.389-25.61,10.769-51.245c.975-4.641.813-13.76-6.388-12.842C540.588,451.13,537.012,458.746,535.5,462.672Z" transform="translate(-163.467 -150.584)" fill="#f86d70"/>
    <path id="Path_722" data-name="Path 722" d="M395.619,498.332c-.293,1.487-1.764,2.39-3.1,3.1-2.576,1.39-5.38,2.828-8.282,2.438s-5.332-2.536-7.234-4.812a18.548,18.548,0,0,1-2.438-3.544c-2.934-5.795-3.251-30.454,8.875-22.408,5.007,3.332,2.186,9.022,2.812,13.923a14.24,14.24,0,0,0,3.324,7.884C389.946,495.341,395.432,499.291,395.619,498.332Z" transform="translate(-142.152 -154.546)" fill="#f86d70"/>
    <ellipse id="Ellipse_99" data-name="Ellipse 99" cx="36" cy="17.5" rx="36" ry="17.5" transform="translate(321 159.904)" fill="#2f2e41"/>
    <path id="Path_723" data-name="Path 723" d="M521.8,309.7c-19.571,0-35.493-7.315-36.135-16.5a9.216,9.216,0,0,0-1.626,5.12c0,9.428,16.19,17.068,36.168,17.068s36.168-7.64,36.168-17.068v-.569C551.7,304.676,538,309.7,521.8,309.7Z" transform="translate(-162.967 -121.159)" opacity="0.1"/>
    <ellipse id="Ellipse_100" data-name="Ellipse 100" cx="89.5" cy="81.5" rx="89.5" ry="81.5" transform="translate(427 146.904)" fill="#2f2e41"/>
    <path id="Path_724" data-name="Path 724" d="M703.4,420.3c-45.279,0-82.7-30.609-88.591-70.3A75.3,75.3,0,0,0,614,360.972c0,44.889,40.028,81.276,89.4,81.276s89.4-36.387,89.4-81.276A75.311,75.311,0,0,0,791.994,350C786.1,389.7,748.682,420.3,703.4,420.3Z" transform="translate(-187.301 -131.794)" opacity="0.1"/>
    <ellipse id="Ellipse_101" data-name="Ellipse 101" cx="43.5" cy="58.5" rx="43.5" ry="58.5" transform="translate(471 172.904)" fill="#2f2e41"/>
    <ellipse id="Ellipse_102" data-name="Ellipse 102" cx="43.5" cy="58.5" rx="43.5" ry="58.5" transform="translate(471 172.904)" opacity="0.1"/>
    <path id="Path_725" data-name="Path 725" d="M695.383,394.779c-1.625,4.015-4.877,8.282-9.753,8.591,6.5,5.34,13.085,10.737,20.855,14.63s16.97,6.177,25.813,4.779c6.242-.983,11.915-3.722,17.214-6.721,9.022-5.1,17.881-11.809,20.165-20.9a147.424,147.424,0,0,1-20.319-.382c-3.5-.3-7.087-.764-10.127-2.292a15.792,15.792,0,0,1-7.778-9.509c-1.211-3.836-1.187-7.876-.967-11.85.122-2.316.211-4.877-1.569-6.648s-4.722-2.008-7.4-2.064a101.633,101.633,0,0,0-16.084.951,55.267,55.267,0,0,0-8.282,1.5c-3.527,1.073-3.194.658-2.341,3.609C697.464,377.516,699.081,385.644,695.383,394.779Z" transform="translate(-200.713 -134.115)" fill="#a0616a"/>
    <path id="Path_726" data-name="Path 726" d="M695.383,394.779c-1.625,4.015-4.877,8.282-9.753,8.591,6.5,5.34,13.085,10.737,20.855,14.63s16.97,6.177,25.813,4.779c6.242-.983,11.915-3.722,17.214-6.721,9.022-5.1,17.881-11.809,20.165-20.9a147.424,147.424,0,0,1-20.319-.382c-3.5-.3-7.087-.764-10.127-2.292a15.792,15.792,0,0,1-7.778-9.509c-1.211-3.836-1.187-7.876-.967-11.85.122-2.316.211-4.877-1.569-6.648s-4.722-2.008-7.4-2.064a101.633,101.633,0,0,0-16.084.951,55.267,55.267,0,0,0-8.282,1.5c-3.527,1.073-3.194.658-2.341,3.609C697.464,377.516,699.081,385.644,695.383,394.779Z" transform="translate(-200.713 -134.115)" opacity="0.1"/>
    <circle id="Ellipse_103" data-name="Ellipse 103" cx="38.2" cy="38.2" r="38.2" transform="translate(475.058 175.942)" fill="#a0616a"/>
    <path id="Path_727" data-name="Path 727" d="M686.381,403.669c-2.5-2.991-5.064-6.047-8.388-8.079-5.445-3.34-12.191-3.552-18.571-3.657-6.917-.122-14.435-.057-19.9,4.178a31.555,31.555,0,0,0-6.088,7.1l-23.172,33.323c-.9,1.3-1.853,2.772-1.625,4.34a6.372,6.372,0,0,0,1.625,3L635.746,475.7c1.455,1.812,2.958,3.722,3.446,6a12.9,12.9,0,0,1-.894,6.876c-3.08,8.77-8.94,17.068-8.4,26.309.382,6.031,3.535,11.574,7.4,16.255,8.859,10.672,21.611,17.612,34.949,21.4s27.341,4.616,41.215,4.706c26.155.171,53.642-2.682,75.245-17.434l-16.979-16c-3.357-3.17-6.876-6.583-8.038-11.054-.813-3.007-.423-6.177-.057-9.257.683-5.632,1.365-11.305,3.186-16.67,5.064-14.947,18.076-25.586,26.756-38.761,1.089-1.625,2.146-3.495,2.024-5.47a9.786,9.786,0,0,0-1.926-4.551c-3.966-6.153-8.079-12.273-10.956-19-2.146-5.007-3.6-10.33-6.258-15.085s-6.876-9.03-12.191-10.029c-6.843-1.284-13.516,3-20.465,3.292-5.088.219-10.4-1.691-15.15.122-5.641,2.154-8.128,8.51-11.289,13.671-2.333,3.844-9.29,14.361-14.743,11.777-2.967-1.414-5.689-6.5-7.819-9Z" transform="translate(-186.29 -139.64)" fill="#f98a8d"/>
    <path id="Path_728" data-name="Path 728" d="M738.689,437.975a6.551,6.551,0,0,0-4.243-.764,3.324,3.324,0,0,0-2.69,3.04l-2.349-.138a2.622,2.622,0,0,0-.813.041,1.31,1.31,0,0,0,.553,2.56,7.835,7.835,0,0,0-3,2.113,4.2,4.2,0,0,0,1.138,5.8,4.552,4.552,0,0,0,5.9-1.2,2.138,2.138,0,0,0,1.138,2.511c4.405,2.381,6.648-.853,7.25-4.6C742.257,443.226,743.135,440.17,738.689,437.975Z" transform="translate(-208.168 -148.109)" fill="#ffe9b3"/>
    <path id="Path_729" data-name="Path 729" d="M738.689,437.975a6.551,6.551,0,0,0-4.243-.764,3.324,3.324,0,0,0-2.69,3.04l-2.349-.138a2.622,2.622,0,0,0-.813.041,1.31,1.31,0,0,0,.553,2.56,7.835,7.835,0,0,0-3,2.113,4.2,4.2,0,0,0,1.138,5.8,4.552,4.552,0,0,0,5.9-1.2,2.138,2.138,0,0,0,1.138,2.511c4.405,2.381,6.648-.853,7.25-4.6C742.257,443.226,743.135,440.17,738.689,437.975Z" transform="translate(-208.168 -148.109)" opacity="0.15"/>
    <path id="Path_730" data-name="Path 730" d="M753.463,434.576a6.5,6.5,0,0,0-4.243-.756,3.3,3.3,0,0,0-2.682,3.032l-2.349-.138a2.683,2.683,0,0,0-.813.041,1.349,1.349,0,0,0-.918,1.552,1.333,1.333,0,0,0,1.52.967,7.893,7.893,0,0,0-3,2.113,4.21,4.21,0,0,0,1.138,5.8A4.56,4.56,0,0,0,748.025,446a2.13,2.13,0,0,0,1.13,2.5c4.413,2.39,6.648-.813,7.258-4.592C757.039,439.827,757.933,436.771,753.463,434.576Z" transform="translate(-210.946 -147.473)" fill="#ffe9b3"/>
    <path id="Path_731" data-name="Path 731" d="M765.5,436.3a6.5,6.5,0,0,0-4.235-.756,3.3,3.3,0,0,0-2.69,3.032l-2.349-.138a2.615,2.615,0,0,0-.813.041,1.349,1.349,0,0,0-.918,1.552,1.333,1.333,0,0,0,1.52.967,7.77,7.77,0,0,0-3,2.113,4.2,4.2,0,0,0,1.138,5.8,4.543,4.543,0,0,0,5.9-1.195,2.129,2.129,0,0,0,1.138,2.5c4.405,2.389,6.64-.853,7.25-4.592C769.078,441.588,769.939,438.491,765.5,436.3Z" transform="translate(-213.199 -147.795)" fill="#ffe9b3"/>
    <path id="Path_732" data-name="Path 732" d="M765.5,436.3a6.5,6.5,0,0,0-4.235-.756,3.3,3.3,0,0,0-2.69,3.032l-2.349-.138a2.615,2.615,0,0,0-.813.041,1.349,1.349,0,0,0-.918,1.552,1.333,1.333,0,0,0,1.52.967,7.77,7.77,0,0,0-3,2.113,4.2,4.2,0,0,0,1.138,5.8,4.543,4.543,0,0,0,5.9-1.195,2.129,2.129,0,0,0,1.138,2.5c4.405,2.389,6.64-.853,7.25-4.592C769.078,441.588,769.939,438.491,765.5,436.3Z" transform="translate(-213.199 -147.795)" opacity="0.15"/>
    <path id="Path_733" data-name="Path 733" d="M781.336,443.016v87.307a2.105,2.105,0,0,1-2.1,2.1H711.1a2.105,2.105,0,0,1-2.1-2.1V443.016a2.1,2.1,0,0,1,2.934-1.926q2.6,1.122,5.194,2.073,3.657,1.341,7.315,2.333t7.315,1.626c2.438.423,4.877.748,7.315.943s4.877.276,7.315.228,4.877-.187,7.315-.455,4.877-.667,7.315-1.179,4.877-1.113,7.315-1.853c1.894-.577,3.8-1.219,5.689-1.934,1.463-.544,2.918-1.138,4.381-1.772a2.1,2.1,0,0,1,2.934,1.918Z" transform="translate(-205.089 -148.817)" fill="#bbbdc8"/>
    <path id="Path_734" data-name="Path 734" d="M726.315,446.013v86.965H719v-89.3Q722.657,445.021,726.315,446.013Z" transform="translate(-206.961 -149.335)" fill="#fff"/>
    <path id="Path_735" data-name="Path 735" d="M744.315,449.475V533.84H737V448.5A66.332,66.332,0,0,0,744.315,449.475Z" transform="translate(-210.332 -150.237)" fill="#fff"/>
    <path id="Path_736" data-name="Path 736" d="M762.315,449.42v84.592H755V449.891Q758.657,449.826,762.315,449.42Z" transform="translate(-213.702 -150.41)" fill="#fff"/>
    <path id="Path_737" data-name="Path 737" d="M780.315,445.69v87.624H773V447.567Q776.657,446.8,780.315,445.69Z" transform="translate(-217.072 -149.711)" fill="#fff"/>
    <path id="Path_738" data-name="Path 738" d="M796.315,443.016v87.307a2.105,2.105,0,0,1-2.1,2.1H789V442.862c1.463-.545,2.918-1.138,4.381-1.772a2.1,2.1,0,0,1,2.934,1.926Z" transform="translate(-220.068 -148.817)" opacity="0.1"/>
    <path id="Path_739" data-name="Path 739" d="M729.372,432.857a6.5,6.5,0,0,0-4.234-.756,3.3,3.3,0,0,0-2.69,3.032l-2.349-.138a2.617,2.617,0,0,0-.813.041,1.349,1.349,0,0,0-.918,1.552,1.333,1.333,0,0,0,1.52.967,7.769,7.769,0,0,0-3,2.113,4.2,4.2,0,0,0,1.138,5.8,4.552,4.552,0,0,0,5.9-1.195,2.13,2.13,0,0,0,1.138,2.5c4.405,2.381,6.64-.853,7.25-4.592C732.948,438.107,733.826,435.051,729.372,432.857Z" transform="translate(-206.434 -147.151)" fill="#ffe9b3"/>
    <path id="Path_740" data-name="Path 740" d="M744.372,415.857a6.5,6.5,0,0,0-4.234-.756,3.3,3.3,0,0,0-2.69,3.032l-2.349-.138a2.616,2.616,0,0,0-.813.041,1.349,1.349,0,0,0-.918,1.552,1.333,1.333,0,0,0,1.52.967,7.77,7.77,0,0,0-3,2.113,4.2,4.2,0,0,0,1.138,5.8,4.552,4.552,0,0,0,5.9-1.195,2.13,2.13,0,0,0,1.138,2.5c4.405,2.381,6.64-.853,7.25-4.592C747.948,421.107,748.826,418.051,744.372,415.857Z" transform="translate(-209.243 -143.968)" fill="#ffe9b3"/>
    <path id="Path_741" data-name="Path 741" d="M754.32,435.726a6.5,6.5,0,0,0,1.569-4.015,3.3,3.3,0,0,0-2.438-3.251l.593-2.276a2.438,2.438,0,0,0,.122-.813,1.293,1.293,0,0,0-2.585.1,7.778,7.778,0,0,0-1.487-3.349,4.21,4.21,0,0,0-5.917,0,4.551,4.551,0,0,0,0,6.023,2.138,2.138,0,0,0-2.682.634c-3.194,3.852-.455,6.681,3.1,8.006C748.476,438.213,751.3,439.676,754.32,435.726Z" transform="translate(-210.909 -145.071)" fill="#ffe9b3"/>
    <path id="Path_742" data-name="Path 742" d="M767.32,435.726a6.5,6.5,0,0,0,1.569-4.015,3.3,3.3,0,0,0-2.438-3.251l.593-2.276a2.44,2.44,0,0,0,.122-.813,1.293,1.293,0,0,0-2.585.1,7.778,7.778,0,0,0-1.487-3.349,4.21,4.21,0,0,0-5.917,0,4.551,4.551,0,0,0,0,6.023,2.138,2.138,0,0,0-2.682.634c-3.194,3.852-.455,6.681,3.1,8.006C761.476,438.213,764.3,439.676,767.32,435.726Z" transform="translate(-213.343 -145.071)" fill="#ffe9b3"/>
    <path id="Path_743" data-name="Path 743" d="M775.36,444.629a6.5,6.5,0,0,0,.813-4.234,3.308,3.308,0,0,0-3.007-2.723l.171-2.341a2.682,2.682,0,0,0,0-.813,1.292,1.292,0,1,0-2.52.577,7.908,7.908,0,0,0-2.081-3.023,4.21,4.21,0,0,0-5.819,1.073,4.551,4.551,0,0,0,1.138,5.917,2.138,2.138,0,0,0-2.52,1.114c-2.438,4.381.813,6.656,4.519,7.315C770.078,448.132,773.133,449.051,775.36,444.629Z" transform="translate(-214.768 -147.025)" fill="#ffe9b3"/>
    <path id="Path_744" data-name="Path 744" d="M735.36,428.629a6.5,6.5,0,0,0,.813-4.234,3.308,3.308,0,0,0-3.007-2.723l.171-2.341a2.684,2.684,0,0,0,0-.813,1.292,1.292,0,1,0-2.519.577,7.909,7.909,0,0,0-2.081-3.023,4.21,4.21,0,0,0-5.819,1.073,4.551,4.551,0,0,0,1.138,5.917,2.137,2.137,0,0,0-2.519,1.113c-2.438,4.381.813,6.657,4.519,7.315C730.078,432.132,733.133,433.051,735.36,428.629Z" transform="translate(-207.278 -144.029)" fill="#ffe9b3"/>
    <path id="Path_745" data-name="Path 745" d="M739.689,425.975a6.551,6.551,0,0,0-4.243-.764,3.324,3.324,0,0,0-2.69,3.04l-2.349-.138a2.628,2.628,0,0,0-.813.041,1.31,1.31,0,0,0,.553,2.56,7.834,7.834,0,0,0-3,2.113,4.2,4.2,0,0,0,1.138,5.8,4.551,4.551,0,0,0,5.9-1.2,2.138,2.138,0,0,0,1.138,2.512c4.405,2.381,6.648-.853,7.25-4.6C743.257,431.226,744.135,428.17,739.689,425.975Z" transform="translate(-208.355 -145.862)" fill="#ffe9b3"/>
    <path id="Path_746" data-name="Path 746" d="M739.689,425.975a6.551,6.551,0,0,0-4.243-.764,3.324,3.324,0,0,0-2.69,3.04l-2.349-.138a2.628,2.628,0,0,0-.813.041,1.31,1.31,0,0,0,.553,2.56,7.834,7.834,0,0,0-3,2.113,4.2,4.2,0,0,0,1.138,5.8,4.551,4.551,0,0,0,5.9-1.2,2.138,2.138,0,0,0,1.138,2.512c4.405,2.381,6.648-.853,7.25-4.6C743.257,431.226,744.135,428.17,739.689,425.975Z" transform="translate(-208.355 -145.862)" opacity="0.15"/>
    <path id="Path_747" data-name="Path 747" d="M782.713,429.416a6.5,6.5,0,0,0-4.243-.756,3.308,3.308,0,0,0-2.69,3.032l-2.341-.138a2.668,2.668,0,0,0-.813.041,1.349,1.349,0,0,0-.918,1.552,1.333,1.333,0,0,0,1.52.967,7.891,7.891,0,0,0-3,2.113,4.21,4.21,0,0,0,1.138,5.8,4.552,4.552,0,0,0,5.9-1.195,2.129,2.129,0,0,0,1.138,2.5c4.405,2.381,6.648-.853,7.25-4.6C786.281,434.667,787.158,431.611,782.713,429.416Z" transform="translate(-216.422 -146.507)" fill="#ffe9b3"/>
    <path id="Path_748" data-name="Path 748" d="M782.713,429.416a6.5,6.5,0,0,0-4.243-.756,3.308,3.308,0,0,0-2.69,3.032l-2.341-.138a2.668,2.668,0,0,0-.813.041,1.349,1.349,0,0,0-.918,1.552,1.333,1.333,0,0,0,1.52.967,7.891,7.891,0,0,0-3,2.113,4.21,4.21,0,0,0,1.138,5.8,4.552,4.552,0,0,0,5.9-1.195,2.129,2.129,0,0,0,1.138,2.5c4.405,2.381,6.648-.853,7.25-4.6C786.281,434.667,787.158,431.611,782.713,429.416Z" transform="translate(-216.422 -146.507)" opacity="0.15"/>
    <path id="Path_749" data-name="Path 749" d="M756.713,412.416a6.5,6.5,0,0,0-4.243-.756,3.308,3.308,0,0,0-2.69,3.032l-2.341-.138a2.666,2.666,0,0,0-.813.041,1.349,1.349,0,0,0-.918,1.552,1.333,1.333,0,0,0,1.52.967,7.893,7.893,0,0,0-3,2.113,4.21,4.21,0,0,0,1.138,5.8,4.551,4.551,0,0,0,5.9-1.195,2.129,2.129,0,0,0,1.138,2.5c4.405,2.381,6.648-.853,7.25-4.6C760.281,417.667,761.158,414.611,756.713,412.416Z" transform="translate(-211.554 -143.324)" fill="#ffe9b3"/>
    <path id="Path_750" data-name="Path 750" d="M756.713,412.416a6.5,6.5,0,0,0-4.243-.756,3.308,3.308,0,0,0-2.69,3.032l-2.341-.138a2.666,2.666,0,0,0-.813.041,1.349,1.349,0,0,0-.918,1.552,1.333,1.333,0,0,0,1.52.967,7.893,7.893,0,0,0-3,2.113,4.21,4.21,0,0,0,1.138,5.8,4.551,4.551,0,0,0,5.9-1.195,2.129,2.129,0,0,0,1.138,2.5c4.405,2.381,6.648-.853,7.25-4.6C760.281,417.667,761.158,414.611,756.713,412.416Z" transform="translate(-211.554 -143.324)" opacity="0.15"/>
    <path id="Path_751" data-name="Path 751" d="M736.713,406.416a6.5,6.5,0,0,0-4.243-.756,3.308,3.308,0,0,0-2.69,3.032l-2.341-.138a2.666,2.666,0,0,0-.813.041,1.349,1.349,0,0,0-.918,1.552,1.333,1.333,0,0,0,1.52.967,7.891,7.891,0,0,0-3,2.113,4.21,4.21,0,0,0,1.138,5.8,4.551,4.551,0,0,0,5.9-1.195,2.13,2.13,0,0,0,1.138,2.5c4.405,2.381,6.648-.853,7.25-4.6C740.281,411.667,741.158,408.611,736.713,406.416Z" transform="translate(-207.809 -142.2)" fill="#ffe9b3"/>
    <path id="Path_752" data-name="Path 752" d="M736.713,406.416a6.5,6.5,0,0,0-4.243-.756,3.308,3.308,0,0,0-2.69,3.032l-2.341-.138a2.666,2.666,0,0,0-.813.041,1.349,1.349,0,0,0-.918,1.552,1.333,1.333,0,0,0,1.52.967,7.891,7.891,0,0,0-3,2.113,4.21,4.21,0,0,0,1.138,5.8,4.551,4.551,0,0,0,5.9-1.195,2.13,2.13,0,0,0,1.138,2.5c4.405,2.381,6.648-.853,7.25-4.6C740.281,411.667,741.158,408.611,736.713,406.416Z" transform="translate(-207.809 -142.2)" opacity="0.15"/>
    <path id="Path_753" data-name="Path 753" d="M758.713,402.416a6.5,6.5,0,0,0-4.243-.756,3.308,3.308,0,0,0-2.69,3.032l-2.341-.138a2.667,2.667,0,0,0-.813.041,1.349,1.349,0,0,0-.918,1.552,1.333,1.333,0,0,0,1.52.967,7.893,7.893,0,0,0-3,2.113,4.21,4.21,0,0,0,1.138,5.8,4.551,4.551,0,0,0,5.9-1.195,2.13,2.13,0,0,0,1.138,2.5c4.405,2.381,6.648-.853,7.25-4.6C762.281,407.667,763.158,404.611,758.713,402.416Z" transform="translate(-211.928 -141.451)" fill="#ffe9b3"/>
    <path id="Path_754" data-name="Path 754" d="M758.713,402.416a6.5,6.5,0,0,0-4.243-.756,3.308,3.308,0,0,0-2.69,3.032l-2.341-.138a2.667,2.667,0,0,0-.813.041,1.349,1.349,0,0,0-.918,1.552,1.333,1.333,0,0,0,1.52.967,7.893,7.893,0,0,0-3,2.113,4.21,4.21,0,0,0,1.138,5.8,4.551,4.551,0,0,0,5.9-1.195,2.13,2.13,0,0,0,1.138,2.5c4.405,2.381,6.648-.853,7.25-4.6C762.281,407.667,763.158,404.611,758.713,402.416Z" transform="translate(-211.928 -141.451)" opacity="0.15"/>
    <path id="Path_755" data-name="Path 755" d="M766.713,408.416a6.5,6.5,0,0,0-4.243-.756,3.308,3.308,0,0,0-2.69,3.032l-2.341-.138a2.668,2.668,0,0,0-.813.041,1.349,1.349,0,0,0-.918,1.552,1.333,1.333,0,0,0,1.52.967,7.891,7.891,0,0,0-3,2.113,4.21,4.21,0,0,0,1.138,5.8,4.552,4.552,0,0,0,5.9-1.195,2.129,2.129,0,0,0,1.138,2.5c4.405,2.381,6.648-.853,7.25-4.6C770.281,413.667,771.158,410.611,766.713,408.416Z" transform="translate(-213.426 -142.575)" fill="#ffe9b3"/>
    <path id="Path_756" data-name="Path 756" d="M766.713,408.416a6.5,6.5,0,0,0-4.243-.756,3.308,3.308,0,0,0-2.69,3.032l-2.341-.138a2.668,2.668,0,0,0-.813.041,1.349,1.349,0,0,0-.918,1.552,1.333,1.333,0,0,0,1.52.967,7.891,7.891,0,0,0-3,2.113,4.21,4.21,0,0,0,1.138,5.8,4.552,4.552,0,0,0,5.9-1.195,2.129,2.129,0,0,0,1.138,2.5c4.405,2.381,6.648-.853,7.25-4.6C770.281,413.667,771.158,410.611,766.713,408.416Z" transform="translate(-213.426 -142.575)" opacity="0.15"/>
    <path id="Path_757" data-name="Path 757" d="M717.713,429.416a6.5,6.5,0,0,0-4.243-.756,3.308,3.308,0,0,0-2.69,3.032l-2.341-.138a2.668,2.668,0,0,0-.813.041,1.349,1.349,0,0,0-.918,1.552,1.333,1.333,0,0,0,1.52.967,7.892,7.892,0,0,0-3,2.113,4.21,4.21,0,0,0,1.138,5.8,4.551,4.551,0,0,0,5.9-1.195,2.13,2.13,0,0,0,1.138,2.5c4.405,2.381,6.648-.853,7.25-4.6C721.281,434.667,722.158,431.611,717.713,429.416Z" transform="translate(-204.252 -146.507)" fill="#ffe9b3"/>
    <path id="Path_758" data-name="Path 758" d="M717.713,429.416a6.5,6.5,0,0,0-4.243-.756,3.308,3.308,0,0,0-2.69,3.032l-2.341-.138a2.668,2.668,0,0,0-.813.041,1.349,1.349,0,0,0-.918,1.552,1.333,1.333,0,0,0,1.52.967,7.892,7.892,0,0,0-3,2.113,4.21,4.21,0,0,0,1.138,5.8,4.551,4.551,0,0,0,5.9-1.195,2.13,2.13,0,0,0,1.138,2.5c4.405,2.381,6.648-.853,7.25-4.6C721.281,434.667,722.158,431.611,717.713,429.416Z" transform="translate(-204.252 -146.507)" opacity="0.15"/>
    <path id="Path_759" data-name="Path 759" d="M775.713,415.416a6.5,6.5,0,0,0-4.243-.756,3.308,3.308,0,0,0-2.69,3.032l-2.341-.138a2.664,2.664,0,0,0-.813.041,1.349,1.349,0,0,0-.918,1.552,1.333,1.333,0,0,0,1.52.967,7.892,7.892,0,0,0-3,2.113,4.21,4.21,0,0,0,1.138,5.8,4.551,4.551,0,0,0,5.9-1.195,2.13,2.13,0,0,0,1.138,2.5c4.405,2.381,6.648-.853,7.25-4.6C779.281,420.667,780.158,417.611,775.713,415.416Z" transform="translate(-215.112 -143.885)" fill="#ffe9b3"/>
    <path id="Path_760" data-name="Path 760" d="M775.713,415.416a6.5,6.5,0,0,0-4.243-.756,3.308,3.308,0,0,0-2.69,3.032l-2.341-.138a2.664,2.664,0,0,0-.813.041,1.349,1.349,0,0,0-.918,1.552,1.333,1.333,0,0,0,1.52.967,7.892,7.892,0,0,0-3,2.113,4.21,4.21,0,0,0,1.138,5.8,4.551,4.551,0,0,0,5.9-1.195,2.13,2.13,0,0,0,1.138,2.5c4.405,2.381,6.648-.853,7.25-4.6C779.281,420.667,780.158,417.611,775.713,415.416Z" transform="translate(-215.112 -143.885)" opacity="0.15"/>
    <path id="Path_761" data-name="Path 761" d="M794.713,425.416a6.5,6.5,0,0,0-4.243-.756,3.308,3.308,0,0,0-2.69,3.032l-2.341-.138a2.665,2.665,0,0,0-.813.041,1.349,1.349,0,0,0-.919,1.552,1.333,1.333,0,0,0,1.52.967,7.893,7.893,0,0,0-3,2.113,4.21,4.21,0,0,0,1.138,5.8,4.551,4.551,0,0,0,5.9-1.195,2.129,2.129,0,0,0,1.138,2.5c4.405,2.381,6.648-.853,7.25-4.6C798.281,430.667,799.158,427.611,794.713,425.416Z" transform="translate(-218.669 -145.758)" fill="#ffe9b3"/>
    <path id="Path_762" data-name="Path 762" d="M794.713,425.416a6.5,6.5,0,0,0-4.243-.756,3.308,3.308,0,0,0-2.69,3.032l-2.341-.138a2.665,2.665,0,0,0-.813.041,1.349,1.349,0,0,0-.919,1.552,1.333,1.333,0,0,0,1.52.967,7.893,7.893,0,0,0-3,2.113,4.21,4.21,0,0,0,1.138,5.8,4.551,4.551,0,0,0,5.9-1.195,2.129,2.129,0,0,0,1.138,2.5c4.405,2.381,6.648-.853,7.25-4.6C798.281,430.667,799.158,427.611,794.713,425.416Z" transform="translate(-218.669 -145.758)" opacity="0.15"/>
    <path id="Path_763" data-name="Path 763" d="M778.713,403.416a6.5,6.5,0,0,0-4.243-.756,3.308,3.308,0,0,0-2.69,3.032l-2.341-.138a2.668,2.668,0,0,0-.813.041,1.349,1.349,0,0,0-.918,1.552,1.333,1.333,0,0,0,1.52.967,7.893,7.893,0,0,0-3,2.113,4.21,4.21,0,0,0,1.138,5.8,4.551,4.551,0,0,0,5.9-1.195,2.13,2.13,0,0,0,1.138,2.5c4.405,2.381,6.648-.853,7.25-4.6C782.281,408.667,783.158,405.611,778.713,403.416Z" transform="translate(-215.673 -141.639)" fill="#ffe9b3"/>
    <path id="Path_764" data-name="Path 764" d="M778.713,403.416a6.5,6.5,0,0,0-4.243-.756,3.308,3.308,0,0,0-2.69,3.032l-2.341-.138a2.668,2.668,0,0,0-.813.041,1.349,1.349,0,0,0-.918,1.552,1.333,1.333,0,0,0,1.52.967,7.893,7.893,0,0,0-3,2.113,4.21,4.21,0,0,0,1.138,5.8,4.551,4.551,0,0,0,5.9-1.195,2.13,2.13,0,0,0,1.138,2.5c4.405,2.381,6.648-.853,7.25-4.6C782.281,408.667,783.158,405.611,778.713,403.416Z" transform="translate(-215.673 -141.639)" opacity="0.15"/>
    <path id="Path_765" data-name="Path 765" d="M792.36,424.629a6.5,6.5,0,0,0,.813-4.234,3.308,3.308,0,0,0-3.007-2.723l.171-2.341a2.68,2.68,0,0,0,0-.813,1.292,1.292,0,0,0-2.52.577,7.909,7.909,0,0,0-2.081-3.023,4.21,4.21,0,0,0-5.819,1.073,4.552,4.552,0,0,0,1.138,5.917,2.138,2.138,0,0,0-2.52,1.113c-2.438,4.381.813,6.656,4.519,7.315C787.077,428.132,790.133,429.051,792.36,424.629Z" transform="translate(-217.951 -143.28)" fill="#ffe9b3"/>
    <path id="Path_766" data-name="Path 766" d="M792.36,408.629a6.5,6.5,0,0,0,.813-4.234,3.308,3.308,0,0,0-3.007-2.723l.171-2.341a2.68,2.68,0,0,0,0-.813,1.292,1.292,0,0,0-2.52.577,7.907,7.907,0,0,0-2.081-3.023,4.21,4.21,0,0,0-5.819,1.073,4.552,4.552,0,0,0,1.138,5.917,2.137,2.137,0,0,0-2.52,1.113c-2.438,4.381.813,6.656,4.519,7.315C787.077,412.132,790.133,413.051,792.36,408.629Z" transform="translate(-217.951 -140.284)" fill="#ffe9b3"/>
    <path id="Path_767" data-name="Path 767" d="M775.36,429.629a6.5,6.5,0,0,0,.813-4.234,3.308,3.308,0,0,0-3.007-2.723l.171-2.341a2.684,2.684,0,0,0,0-.813,1.292,1.292,0,1,0-2.519.577,7.907,7.907,0,0,0-2.081-3.023,4.21,4.21,0,0,0-5.819,1.073,4.551,4.551,0,0,0,1.138,5.917,2.138,2.138,0,0,0-2.52,1.114c-2.438,4.381.813,6.656,4.519,7.315C770.078,433.132,773.133,434.051,775.36,429.629Z" transform="translate(-214.768 -144.216)" fill="#ffe9b3"/>
    <path id="Path_768" data-name="Path 768" d="M794.36,447.629a6.5,6.5,0,0,0,.813-4.234,3.308,3.308,0,0,0-3.007-2.723l.171-2.341a2.68,2.68,0,0,0,0-.813,1.292,1.292,0,0,0-2.52.577,7.909,7.909,0,0,0-2.081-3.023,4.21,4.21,0,0,0-5.819,1.073,4.552,4.552,0,0,0,1.138,5.917,2.137,2.137,0,0,0-2.519,1.113c-2.438,4.381.813,6.656,4.519,7.315C789.078,451.132,792.133,452.051,794.36,447.629Z" transform="translate(-218.325 -147.587)" fill="#ffe9b3"/>
    <path id="Path_769" data-name="Path 769" d="M758.36,454.629a6.5,6.5,0,0,0,.813-4.234,3.308,3.308,0,0,0-3.007-2.723l.171-2.341a2.684,2.684,0,0,0,0-.813,1.292,1.292,0,0,0-2.52.577,7.907,7.907,0,0,0-2.081-3.023,4.21,4.21,0,0,0-5.819,1.073,4.552,4.552,0,0,0,1.138,5.917,2.137,2.137,0,0,0-2.519,1.113c-2.438,4.381.813,6.656,4.519,7.315C753.077,458.132,756.133,459.051,758.36,454.629Z" transform="translate(-211.584 -148.897)" fill="#ffe9b3"/>
    <path id="Path_770" data-name="Path 770" d="M750.36,413.629a6.5,6.5,0,0,0,.813-4.234,3.308,3.308,0,0,0-3.007-2.723l.171-2.341a2.684,2.684,0,0,0,0-.813,1.292,1.292,0,0,0-2.52.577,7.907,7.907,0,0,0-2.081-3.023,4.21,4.21,0,0,0-5.819,1.073,4.552,4.552,0,0,0,1.138,5.917,2.138,2.138,0,0,0-2.52,1.113c-2.438,4.381.813,6.657,4.519,7.315C745.078,417.132,748.133,418.051,750.36,413.629Z" transform="translate(-210.087 -141.221)" fill="#ffe9b3"/>
    <path id="Path_771" data-name="Path 771" d="M771.36,408.629a6.5,6.5,0,0,0,.813-4.234,3.308,3.308,0,0,0-3.007-2.723l.171-2.341a2.68,2.68,0,0,0,0-.813,1.292,1.292,0,1,0-2.519.577,7.907,7.907,0,0,0-2.081-3.023,4.21,4.21,0,0,0-5.819,1.073,4.552,4.552,0,0,0,1.138,5.917,2.137,2.137,0,0,0-2.52,1.113c-2.438,4.381.813,6.656,4.519,7.315C766.078,412.132,769.133,413.051,771.36,408.629Z" transform="translate(-214.019 -140.284)" fill="#ffe9b3"/>
    <path id="Path_772" data-name="Path 772" d="M729.36,427.629a6.5,6.5,0,0,0,.813-4.234,3.308,3.308,0,0,0-3.007-2.723l.171-2.341a2.684,2.684,0,0,0,0-.813,1.292,1.292,0,1,0-2.52.577,7.907,7.907,0,0,0-2.081-3.023,4.21,4.21,0,0,0-5.819,1.073,4.552,4.552,0,0,0,1.138,5.917,2.137,2.137,0,0,0-2.519,1.113c-2.438,4.381.813,6.656,4.519,7.315C724.078,431.132,727.133,432.051,729.36,427.629Z" transform="translate(-206.155 -143.842)" fill="#ffe9b3"/>
    <path id="Path_773" data-name="Path 773" d="M707.809,476.12c4.226-.341,8.4-1.422,12.638-1.365,5.551.073,10.891,2.081,15.946,4.373a12.572,12.572,0,0,1,4.015,2.5,8.477,8.477,0,0,1,1.934,7.087,18.349,18.349,0,0,1-2.91,6.973c-1.479,2.349-3.308,4.665-5.884,5.689a14.127,14.127,0,0,1-4.478.772c-6.364.349-12.85,0-18.888-2.04-3.1-1.057-6.031-2.536-9.062-3.787-9.664-4-20.116-5.576-30.381-7.591a3.12,3.12,0,0,1-1.447-.561c-2.138-1.845,2.5-8.493,3.592-10.355,1.837-3.162,3.5-3.5,7.226-3.592C689.408,473.991,698.486,476.7,707.809,476.12Z" transform="translate(-197.55 -155.052)" fill="#a0616a"/>
    <path id="Path_774" data-name="Path 774" d="M798.857,502.36c-2.942-1.447-5.584-3.446-8.5-4.95a28.656,28.656,0,0,0-11.842-3.145c-2.674-.122-5.584.236-7.526,2.081-2.771,2.633-2.438,7.112-1.528,10.826,1.382,5.567,4.161,11.46,9.5,13.565a21.612,21.612,0,0,0,6.5,1.113c9.891.683,20.189,1.3,29.357-2.438a2.976,2.976,0,0,0,1.625-1.244,3.073,3.073,0,0,0-.406-2.609c-1.463-2.942-3.779-9.111-6.608-10.948C806.8,502.848,802.14,503.969,798.857,502.36Z" transform="translate(-216.287 -158.802)" fill="#a0616a"/>
    <path id="Path_775" data-name="Path 775" d="M826.07,449.259a138.233,138.233,0,0,1,13.28,27.333,22.594,22.594,0,0,1,1.626,7.388,23.153,23.153,0,0,1-2.016,8.217,220.261,220.261,0,0,1-11.427,24.9c-1.3,2.438-2.788,4.982-5.364,6.323-2.706,1.414-6.039,1.195-9.135.813A176.484,176.484,0,0,1,790,520.156c4.771.154,9.079-3.422,11.281-7.315s2.69-8.347,3.056-12.7a19.27,19.27,0,0,0-.293-7.03,7.64,7.64,0,0,0-4.73-5.242c-.219-2.121,1.8-3.9,3.893-4.877s4.462-1.52,6.161-2.983c2.5-2.146,2.861-5.73,2.04-8.77s-2.609-5.787-3.877-8.7c-1.78-4.064,7.4-8.339,7.77-12.728.081-.992-.618.813,0,0s4.454,2.008,5.324,1.625C826.338,448.966,822.909,444.236,826.07,449.259Z" transform="translate(-220.255 -149.964)" opacity="0.1"/>
    <path id="Path_776" data-name="Path 776" d="M828.252,448.556a138.724,138.724,0,0,1,13.289,27.333,22.376,22.376,0,0,1,1.625,7.388,23.316,23.316,0,0,1-2.008,8.217,221.709,221.709,0,0,1-11.427,24.9c-1.3,2.438-2.788,4.982-5.364,6.323-2.706,1.414-6.047,1.195-9.135.813a176,176,0,0,1-23.042-4.08c4.763.154,9.078-3.422,11.273-7.315s2.7-8.347,3.064-12.7a19.449,19.449,0,0,0-.293-7.03,7.673,7.673,0,0,0-4.73-5.242c-.228-2.121,1.8-3.9,3.893-4.877s4.462-1.52,6.161-2.983c2.5-2.146,2.853-5.73,2.032-8.77s-2.609-5.787-3.877-8.7a26.992,26.992,0,0,1-2.162-12.939,5.461,5.461,0,0,1,.862-2.853,5.575,5.575,0,0,1,2.268-1.625C816.418,441.981,825.091,443.533,828.252,448.556Z" transform="translate(-220.666 -149.261)" fill="#f98a8d"/>
    <path id="Path_777" data-name="Path 777" d="M619.055,439.076c-5.275,4.877-10.72,10.029-13.289,16.751a47.564,47.564,0,0,0-2.316,11.517c-.764,6.648-1.455,13.768,1.625,19.7,3.414,6.5,10.566,9.989,17.279,12.939a47.94,47.94,0,0,0,7.193,2.7,50.527,50.527,0,0,0,9.834,1.2l33.884,1.886c-4.421-4.454-7.25-11.427-6.648-17.677.545-5.584,3.251-10.7,5.974-15.589,1.414-2.52,3.015-5.169,5.624-6.413a109.34,109.34,0,0,0-33.648-2.113,2.37,2.37,0,0,1-2.121-.512,2.031,2.031,0,0,1-.325-1.276c0-5.047,3.771-9.241,5.332-14.036,2.5-7.689-6-3.471-13.638-6.112S620.615,431.144,619.055,439.076Z" transform="translate(-185.204 -147.844)" opacity="0.1"/>
    <path id="Path_778" data-name="Path 778" d="M616.055,437.239c-5.275,4.877-10.72,10.029-13.289,16.751a47.57,47.57,0,0,0-2.316,11.517c-.764,6.648-1.455,13.768,1.625,19.7,3.414,6.5,10.566,9.989,17.279,12.939a47.94,47.94,0,0,0,7.193,2.7,50.527,50.527,0,0,0,9.834,1.2l33.884,1.886c-4.421-4.454-7.25-11.427-6.648-17.677.545-5.584,3.251-10.7,5.974-15.589,1.414-2.52,3.015-5.169,5.624-6.413a109.34,109.34,0,0,0-33.648-2.113,2.37,2.37,0,0,1-2.121-.512,2.032,2.032,0,0,1-.325-1.276c0-5.047,3.771-9.241,5.332-14.036,2.5-7.689-1.845-17.068-9.493-19.726S617.615,429.306,616.055,437.239Z" transform="translate(-184.642 -146.007)" fill="#f98a8d"/>
    <ellipse id="Ellipse_104" data-name="Ellipse 104" cx="41.5" cy="17" rx="41.5" ry="17" transform="translate(475 169.904)" fill="#2f2e41"/>
    <path id="Path_779" data-name="Path 779" d="M714.044,320.411c-19.644,0-36.062-5.746-40.094-13.411a7.812,7.812,0,0,0-.951,3.657c0,9.428,18.376,17.068,41.044,17.068s41.044-7.64,41.044-17.068a7.81,7.81,0,0,0-.951-3.657C750.106,314.664,733.689,320.411,714.044,320.411Z" transform="translate(-198.348 -123.743)" opacity="0.1"/>
    <path id="Path_780" data-name="Path 780" d="M788.713,325.416a6.5,6.5,0,0,0-4.243-.756,3.308,3.308,0,0,0-2.69,3.032l-2.341-.138a2.669,2.669,0,0,0-.813.041,1.349,1.349,0,0,0-.918,1.552,1.333,1.333,0,0,0,1.52.967,7.892,7.892,0,0,0-3,2.113,4.21,4.21,0,0,0,1.138,5.8,4.552,4.552,0,0,0,5.9-1.195,2.13,2.13,0,0,0,1.138,2.5c4.405,2.381,6.648-.853,7.25-4.6C792.281,330.667,793.158,327.611,788.713,325.416Z" transform="translate(-217.546 -127.034)" fill="#ffe9b3"/>
    <path id="Path_781" data-name="Path 781" d="M788.713,325.416a6.5,6.5,0,0,0-4.243-.756,3.308,3.308,0,0,0-2.69,3.032l-2.341-.138a2.669,2.669,0,0,0-.813.041,1.349,1.349,0,0,0-.918,1.552,1.333,1.333,0,0,0,1.52.967,7.892,7.892,0,0,0-3,2.113,4.21,4.21,0,0,0,1.138,5.8,4.552,4.552,0,0,0,5.9-1.195,2.13,2.13,0,0,0,1.138,2.5c4.405,2.381,6.648-.853,7.25-4.6C792.281,330.667,793.158,327.611,788.713,325.416Z" transform="translate(-217.546 -127.034)" opacity="0.15"/>
    <path id="Path_782" data-name="Path 782" d="M836.713,401.416a6.5,6.5,0,0,0-4.243-.756,3.308,3.308,0,0,0-2.69,3.032l-2.341-.138a2.665,2.665,0,0,0-.813.041,1.349,1.349,0,0,0-.918,1.552,1.333,1.333,0,0,0,1.52.967,7.893,7.893,0,0,0-3,2.113,4.21,4.21,0,0,0,1.138,5.8,4.551,4.551,0,0,0,5.9-1.195,2.129,2.129,0,0,0,1.138,2.5c4.405,2.381,6.648-.853,7.25-4.6C840.281,406.667,841.158,403.611,836.713,401.416Z" transform="translate(-226.533 -141.264)" fill="#ffe9b3"/>
    <path id="Path_783" data-name="Path 783" d="M836.713,401.416a6.5,6.5,0,0,0-4.243-.756,3.308,3.308,0,0,0-2.69,3.032l-2.341-.138a2.665,2.665,0,0,0-.813.041,1.349,1.349,0,0,0-.918,1.552,1.333,1.333,0,0,0,1.52.967,7.893,7.893,0,0,0-3,2.113,4.21,4.21,0,0,0,1.138,5.8,4.551,4.551,0,0,0,5.9-1.195,2.129,2.129,0,0,0,1.138,2.5c4.405,2.381,6.648-.853,7.25-4.6C840.281,406.667,841.158,403.611,836.713,401.416Z" transform="translate(-226.533 -141.264)" opacity="0.15"/>
    <path id="Path_784" data-name="Path 784" d="M892.713,482.416a6.5,6.5,0,0,0-4.243-.756,3.308,3.308,0,0,0-2.69,3.032l-2.341-.138a2.666,2.666,0,0,0-.813.041,1.349,1.349,0,0,0-.918,1.552,1.333,1.333,0,0,0,1.52.967,7.893,7.893,0,0,0-3,2.113,4.21,4.21,0,0,0,1.138,5.8,4.551,4.551,0,0,0,5.9-1.195,2.129,2.129,0,0,0,1.138,2.5c4.405,2.381,6.648-.853,7.25-4.6C896.281,487.667,897.158,484.611,892.713,482.416Z" transform="translate(-237.019 -156.431)" fill="#ffe9b3"/>
    <path id="Path_785" data-name="Path 785" d="M892.713,482.416a6.5,6.5,0,0,0-4.243-.756,3.308,3.308,0,0,0-2.69,3.032l-2.341-.138a2.666,2.666,0,0,0-.813.041,1.349,1.349,0,0,0-.918,1.552,1.333,1.333,0,0,0,1.52.967,7.893,7.893,0,0,0-3,2.113,4.21,4.21,0,0,0,1.138,5.8,4.551,4.551,0,0,0,5.9-1.195,2.129,2.129,0,0,0,1.138,2.5c4.405,2.381,6.648-.853,7.25-4.6C896.281,487.667,897.158,484.611,892.713,482.416Z" transform="translate(-237.019 -156.431)" opacity="0.15"/>
    <path id="Path_786" data-name="Path 786" d="M806.36,300.629a6.5,6.5,0,0,0,.813-4.234,3.308,3.308,0,0,0-3.007-2.723l.171-2.341a2.684,2.684,0,0,0,0-.813,1.292,1.292,0,1,0-2.519.577,7.91,7.91,0,0,0-2.081-3.024,4.21,4.21,0,0,0-5.819,1.073,4.552,4.552,0,0,0,1.138,5.917,2.138,2.138,0,0,0-2.52,1.113c-2.438,4.381.813,6.657,4.519,7.315C801.078,304.132,804.133,305.051,806.36,300.629Z" transform="translate(-220.572 -120.062)" fill="#ffe9b3"/>
    <path id="Path_787" data-name="Path 787" d="M800.36,265.629a6.5,6.5,0,0,0,.813-4.234,3.308,3.308,0,0,0-3.007-2.723l.171-2.341a2.684,2.684,0,0,0,0-.813,1.292,1.292,0,1,0-2.52.577,7.908,7.908,0,0,0-2.081-3.023,4.21,4.21,0,0,0-5.819,1.073,4.552,4.552,0,0,0,1.138,5.917,2.138,2.138,0,0,0-2.52,1.113c-2.438,4.381.813,6.657,4.519,7.315C795.077,269.132,798.133,270.051,800.36,265.629Z" transform="translate(-219.449 -113.509)" fill="#ffe9b3"/>
    <path id="Path_788" data-name="Path 788" d="M650.713,556.416a6.5,6.5,0,0,0-4.243-.756,3.308,3.308,0,0,0-2.69,3.031l-2.341-.138a2.664,2.664,0,0,0-.813,0,1.349,1.349,0,0,0-.918,1.552,1.333,1.333,0,0,0,1.52.967,7.892,7.892,0,0,0-3,2.113,4.21,4.21,0,0,0,1.138,5.8,4.551,4.551,0,0,0,5.9-1.195,2.129,2.129,0,0,0,1.138,2.5c4.405,2.381,6.648-.813,7.25-4.6C654.281,561.667,655.158,558.611,650.713,556.416Z" transform="translate(-191.707 -170.286)" fill="#ffe9b3"/>
    <path id="Path_789" data-name="Path 789" d="M650.713,556.416a6.5,6.5,0,0,0-4.243-.756,3.308,3.308,0,0,0-2.69,3.031l-2.341-.138a2.664,2.664,0,0,0-.813,0,1.349,1.349,0,0,0-.918,1.552,1.333,1.333,0,0,0,1.52.967,7.892,7.892,0,0,0-3,2.113,4.21,4.21,0,0,0,1.138,5.8,4.551,4.551,0,0,0,5.9-1.195,2.129,2.129,0,0,0,1.138,2.5c4.405,2.381,6.648-.813,7.25-4.6C654.281,561.667,655.158,558.611,650.713,556.416Z" transform="translate(-191.707 -170.286)" opacity="0.15"/>
    <path id="Path_790" data-name="Path 790" d="M614.36,551.629a6.5,6.5,0,0,0,.813-4.234,3.308,3.308,0,0,0-3.007-2.723l.171-2.341a2.683,2.683,0,0,0,0-.813,1.292,1.292,0,0,0-2.52.577,7.908,7.908,0,0,0-2.081-3.024,4.21,4.21,0,0,0-5.819,1.073,4.551,4.551,0,0,0,1.138,5.917,2.137,2.137,0,0,0-2.519,1.113c-2.438,4.381.813,6.656,4.519,7.315C609.078,555.132,612.133,556.051,614.36,551.629Z" transform="translate(-184.622 -167.06)" fill="#ffe9b3"/>
    <path id="Path_791" data-name="Path 791" d="M662.36,496.629a6.5,6.5,0,0,0,.813-4.234,3.308,3.308,0,0,0-3.007-2.723l.171-2.341a2.684,2.684,0,0,0,0-.813,1.292,1.292,0,0,0-2.52.577,7.908,7.908,0,0,0-2.081-3.024,4.21,4.21,0,0,0-5.819,1.073,4.552,4.552,0,0,0,1.138,5.917,2.138,2.138,0,0,0-2.519,1.113c-2.438,4.381.813,6.657,4.519,7.315C657.078,500.132,660.133,501.051,662.36,496.629Z" transform="translate(-193.609 -156.762)" fill="#ffe9b3"/>
    <path id="Path_792" data-name="Path 792" d="M532.4,513.246c-7.916-2.024-16.158-4.064-24.155-2.438-3.56.723-6.925,2.154-10.387,3.251a59.421,59.421,0,0,1-50.993-7.616c-8.29-5.73-16.905-14.085-26.724-11.818-2.642.618-5.088,2-7.786,2.3-5.063.577-9.753-2.706-14.776-3.479-8.648-1.325-16.507,4.738-23.155,10.428l-35.054,30c-2.658,2.276-5.584,5.283-4.877,8.7,1.081,5.015,8.762,5.689,10.737,10.444,1.43,3.405-.935,7.372-4.064,9.314s-6.917,2.438-10.428,3.617a32.43,32.43,0,0,0-21.359,23.733c-.618,2.91-.813,5.933-1.959,8.68-1.235,2.991-3.47,5.445-5.12,8.225-7.217,12.11-2.479,28.178-7.957,41.166-2.9,6.892-8.713,13.557-6.876,20.8,1.674,6.567,8.883,9.924,15.442,11.663.772,4.47-.813,7.624-4.064,10.834,27.268,11.208,56.536,22.652,85.462,16.922,9.924-1.959,19.587-5.933,29.7-5.771,7.177.114,14.272,2.324,21.432,1.821,15.109-1.065,28.983-13.979,43.621-10.1-4.413.3-6.047,6.754-3.446,10.338s7.388,4.73,11.793,5.153,9.07.455,12.89,2.7c-2.893,6.023-13.256,8.128-12.256,14.752.366,2.39,2.3,4.2,4.218,5.689,19.709,15.093,46.856,13.646,71.523,16.255,18.19,1.9,36.021,6.348,54.154,8.721,28.967,3.779,58.332,2.235,87.494.675,5.291-.284,11.224-.87,14.63-4.933,4.519-5.413,2.008-13.435,1.439-20.457-2.211-27.479,27.845-46.392,36.265-72.644,3.251-10.249,3.113-21.262,2.528-32.015-1.309-24.253-5.1-49.838-20.563-68.564-12.728-15.443-31.755-24.139-50.7-30.511-12.061-4.064-24.7-7.4-37.387-6.209-21.294,2.007-42.808,16.548-62.469,8.128-5.2-2.227-9.631-5.909-14.573-8.656C561.613,514.994,546.877,516.944,532.4,513.246Z" transform="translate(-126.095 -158.619)" fill="#d83d21"/>
    <g id="Group_39" data-name="Group 39" transform="translate(161.087 356.562)" opacity="0.1">
      <path id="Path_793" data-name="Path 793" d="M642.384,752.828c-18.133-2.373-35.932-6.795-54.154-8.721-24.692-2.585-51.838-1.138-71.523-16.255-1.918-1.471-3.852-3.251-4.218-5.689-1-6.608,9.363-8.729,12.256-14.752-3.82-2.243-8.477-2.268-12.89-2.7s-9.192-1.569-11.793-5.153-.967-10.038,3.446-10.338c-14.63-3.877-28.512,9.038-43.621,10.1-7.16.5-14.256-1.707-21.432-1.821-10.111-.163-19.774,3.812-29.7,5.771-28.926,5.689-58.185-5.689-85.462-16.922,3.21-3.251,4.812-6.364,4.064-10.834-6.543-1.739-13.752-5.1-15.442-11.663-1.837-7.242,3.974-13.906,6.876-20.8,5.478-13,.74-29.056,7.957-41.166,1.626-2.78,3.885-5.234,5.12-8.225,1.13-2.747,1.341-5.771,1.959-8.68a28.607,28.607,0,0,1,1.057-3.755c-1.365.374-2.747.715-4.064,1.154a32.429,32.429,0,0,0-21.359,23.733c-.618,2.91-.813,5.933-1.959,8.68-1.235,2.991-3.47,5.446-5.12,8.225-7.217,12.11-2.479,28.178-7.957,41.166-2.9,6.892-8.713,13.557-6.876,20.8,1.674,6.567,8.883,9.924,15.442,11.663.772,4.47-.813,7.624-4.064,10.834,27.276,11.208,56.536,22.652,85.462,16.922,9.924-1.959,19.588-5.933,29.7-5.771,7.177.114,14.272,2.325,21.432,1.821,15.109-1.065,28.983-13.98,43.621-10.1-4.413.3-6.047,6.754-3.446,10.338s7.388,4.73,11.793,5.153,9.07.455,12.89,2.7c-2.893,6.023-13.256,8.128-12.256,14.752.366,2.39,2.3,4.2,4.218,5.689,19.709,15.093,46.856,13.646,71.523,16.255,18.19,1.9,36.021,6.348,54.154,8.721,28.967,3.779,58.332,2.235,87.494.674,5.291-.284,11.224-.87,14.63-4.933,3.535-4.242,2.763-10.078,1.991-15.792C695.506,755.291,668.774,756.274,642.384,752.828Z" transform="translate(-287.197 -531.652)"/>
      <path id="Path_794" data-name="Path 794" d="M354.95,556.243a31.348,31.348,0,0,1,11.078-6.372c3.511-1.138,7.315-1.682,10.428-3.617s5.5-5.909,4.064-9.314c-1.975-4.722-9.656-5.429-10.737-10.444-.5-2.308.683-4.43,2.324-6.266l-21.855,18.693c-2.658,2.276-5.584,5.283-4.877,8.7C346.326,551.911,352.064,553.057,354.95,556.243Z" transform="translate(-298.07 -520.23)"/>
    </g>
    <path id="Path_795" data-name="Path 795" d="M444.351,541.629a6.5,6.5,0,0,0,.813-4.234,3.308,3.308,0,0,0-3.007-2.723l.171-2.341a2.683,2.683,0,0,0-.041-.813,1.292,1.292,0,1,0-2.519.577,7.909,7.909,0,0,0-2.081-3.023,4.21,4.21,0,0,0-5.819,1.073A4.551,4.551,0,0,0,433,536.062a2.138,2.138,0,0,0-2.52,1.113c-2.438,4.381.813,6.657,4.519,7.315C439.068,545.132,442.124,546.051,444.351,541.629Z" transform="translate(-152.782 -165.187)" fill="#ffe9b3"/>
    <path id="Path_796" data-name="Path 796" d="M590.36,735.629a6.5,6.5,0,0,0,.813-4.235,3.308,3.308,0,0,0-3.007-2.723l.171-2.341a2.684,2.684,0,0,0,0-.813,1.292,1.292,0,0,0-2.52.577,7.907,7.907,0,0,0-2.081-3.024,4.21,4.21,0,0,0-5.819,1.073,4.552,4.552,0,0,0,1.138,5.917,2.137,2.137,0,0,0-2.519,1.113c-2.438,4.381.813,6.656,4.519,7.315C585.077,739.132,588.133,740.051,590.36,735.629Z" transform="translate(-180.128 -201.512)" fill="#ffe9b3"/>
    <path id="Path_797" data-name="Path 797" d="M690.36,544.629a6.5,6.5,0,0,0,.813-4.234,3.308,3.308,0,0,0-3.007-2.723l.171-2.341a2.68,2.68,0,0,0,0-.813,1.292,1.292,0,0,0-2.519.577,7.908,7.908,0,0,0-2.081-3.023,4.21,4.21,0,0,0-5.819,1.073,4.551,4.551,0,0,0,1.138,5.917,2.138,2.138,0,0,0-2.519,1.114c-2.438,4.381.813,6.656,4.519,7.315C685.078,548.132,688.133,549.051,690.36,544.629Z" transform="translate(-198.852 -165.749)" fill="#ffe9b3"/>
    <path id="Path_798" data-name="Path 798" d="M709.883,541.6a6.5,6.5,0,0,0,3.137-2.95,3.3,3.3,0,0,0-.813-3.966l1.5-1.8a2.647,2.647,0,0,0,.471-.7,1.295,1.295,0,0,0-2.381-1.016,7.892,7.892,0,0,0,.089-3.666,4.21,4.21,0,0,0-5.348-2.544A4.544,4.544,0,0,0,704,530.409a2.146,2.146,0,0,0-2.69-.585c-4.535,2.121-3.251,5.844-.618,8.558C703.535,541.349,705.47,543.877,709.883,541.6Z" transform="translate(-203.087 -164.509)" fill="#ffe9b3"/>
    <path id="Path_799" data-name="Path 799" d="M492.713,550.416a6.5,6.5,0,0,0-4.243-.756,3.308,3.308,0,0,0-2.69,3.032l-2.341-.138a2.665,2.665,0,0,0-.813,0,1.349,1.349,0,0,0-.918,1.552,1.333,1.333,0,0,0,1.52.967,7.893,7.893,0,0,0-3,2.113,4.21,4.21,0,0,0,1.138,5.8,4.551,4.551,0,0,0,5.9-1.195,2.13,2.13,0,0,0,1.138,2.5c4.405,2.381,6.648-.813,7.25-4.6C496.281,555.667,497.158,552.611,492.713,550.416Z" transform="translate(-162.123 -169.163)" fill="#ffe9b3"/>
    <path id="Path_800" data-name="Path 800" d="M492.713,550.416a6.5,6.5,0,0,0-4.243-.756,3.308,3.308,0,0,0-2.69,3.032l-2.341-.138a2.665,2.665,0,0,0-.813,0,1.349,1.349,0,0,0-.918,1.552,1.333,1.333,0,0,0,1.52.967,7.893,7.893,0,0,0-3,2.113,4.21,4.21,0,0,0,1.138,5.8,4.551,4.551,0,0,0,5.9-1.195,2.13,2.13,0,0,0,1.138,2.5c4.405,2.381,6.648-.813,7.25-4.6C496.281,555.667,497.158,552.611,492.713,550.416Z" transform="translate(-162.123 -169.163)" opacity="0.15"/>
    <path id="Path_801" data-name="Path 801" d="M581.157,622.769a6.59,6.59,0,0,0-.7-4.251A3.3,3.3,0,0,0,576.7,617l-.65-2.26a2.739,2.739,0,0,0-.325-.813,1.3,1.3,0,0,0-2.17,1.414,7.853,7.853,0,0,0-2.991-2.129,4.218,4.218,0,0,0-5.1,3.015,4.551,4.551,0,0,0,3.1,5.161,2.138,2.138,0,0,0-1.983,1.91c-.813,4.95,3.023,5.982,6.754,5.3C577.4,627.857,580.572,627.646,581.157,622.769Z" transform="translate(-178.199 -181.054)" fill="#ffe9b3"/>
    <path id="Path_802" data-name="Path 802" d="M581.157,622.769a6.59,6.59,0,0,0-.7-4.251A3.3,3.3,0,0,0,576.7,617l-.65-2.26a2.739,2.739,0,0,0-.325-.813,1.3,1.3,0,0,0-2.17,1.414,7.853,7.853,0,0,0-2.991-2.129,4.218,4.218,0,0,0-5.1,3.015,4.551,4.551,0,0,0,3.1,5.161,2.138,2.138,0,0,0-1.983,1.91c-.813,4.95,3.023,5.982,6.754,5.3C577.4,627.857,580.572,627.646,581.157,622.769Z" transform="translate(-178.199 -181.054)" opacity="0.15"/>
    <path id="Path_803" data-name="Path 803" d="M701.157,531.769a6.592,6.592,0,0,0-.7-4.251,3.3,3.3,0,0,0-3.763-1.52l-.65-2.259a2.741,2.741,0,0,0-.325-.813,1.3,1.3,0,0,0-2.17,1.414,7.85,7.85,0,0,0-2.991-2.129,4.218,4.218,0,0,0-5.1,3.015,4.551,4.551,0,0,0,3.1,5.161,2.138,2.138,0,0,0-1.983,1.91c-.813,4.95,3.023,5.982,6.754,5.3C697.4,536.857,700.572,536.646,701.157,531.769Z" transform="translate(-200.668 -164.016)" fill="#ffe9b3"/>
    <path id="Path_804" data-name="Path 804" d="M701.157,531.769a6.592,6.592,0,0,0-.7-4.251,3.3,3.3,0,0,0-3.763-1.52l-.65-2.259a2.741,2.741,0,0,0-.325-.813,1.3,1.3,0,0,0-2.17,1.414,7.85,7.85,0,0,0-2.991-2.129,4.218,4.218,0,0,0-5.1,3.015,4.551,4.551,0,0,0,3.1,5.161,2.138,2.138,0,0,0-1.983,1.91c-.813,4.95,3.023,5.982,6.754,5.3C697.4,536.857,700.572,536.646,701.157,531.769Z" transform="translate(-200.668 -164.016)" opacity="0.15"/>
  </g>
</svg>
