<svg xmlns="http://www.w3.org/2000/svg" width="747.84" height="456.694" viewBox="0 0 747.84 456.694">
  <g id="Group_41" data-name="Group 41" transform="translate(0 -0.006)">
    <path id="Path_805" data-name="Path 805" d="M463.6,452.23c-.31-.308-7.669-7.76-13.907-25.443-5.723-16.223-11.5-44.514-6.507-87.162,9.454-80.795-39.024-132.285-39.516-132.8l1.435-1.378c.125.13,12.589,13.232,23.678,36.235a178.07,178.07,0,0,1,16.378,98.171C435.721,420.512,464.706,450.526,465,450.82Z" transform="translate(-180.801 -165.251)" fill="#f2f2f2"/>
    <circle id="Ellipse_105" data-name="Ellipse 105" cx="12.928" cy="12.928" r="12.928" transform="translate(195.052 14.366)" fill="#f2f2f2"/>
    <circle id="Ellipse_106" data-name="Ellipse 106" cx="12.928" cy="12.928" r="12.928" transform="translate(245.984 51.067)" fill="#f2f2f2"/>
    <circle id="Ellipse_107" data-name="Ellipse 107" cx="12.928" cy="12.928" r="12.928" transform="translate(226.482 88.587)" fill="#f2f2f2"/>
    <circle id="Ellipse_108" data-name="Ellipse 108" cx="12.928" cy="12.928" r="12.928" transform="translate(265.697 106.651)" fill="#f2f2f2"/>
    <circle id="Ellipse_109" data-name="Ellipse 109" cx="12.928" cy="12.928" r="12.928" transform="translate(233.097 157.606)" fill="#f2f2f2"/>
    <path id="Path_806" data-name="Path 806" d="M489.7,506.34s-20.107-27.848,11.909-60.234Z" transform="translate(-199.205 -220.751)" fill="#f2f2f2"/>
    <path id="Path_807" data-name="Path 807" d="M453.957,521.745s-13.743-31.48-57.913-20.4Z" transform="translate(-179.043 -232.946)" fill="#f2f2f2"/>
    <path id="Path_808" data-name="Path 808" d="M798.208,555.965c-.054-.652-1.208-16.282,8.84-42.482,9.22-24.036,30.088-61.871,77.151-105.622,89.159-82.882,83.882-188.581,83.817-189.64l2.972-.178c.016.268,1.505,27.29-8.176,64.257a266.476,266.476,0,0,1-76.586,127.743c-89.006,82.74-85.1,145.059-85.051,145.679Z" transform="translate(-271.776 -168.155)" fill="#f2f2f2"/>
    <circle id="Ellipse_110" data-name="Ellipse 110" cx="19.346" cy="19.346" r="19.346" transform="translate(673.79 0.005)" fill="#f2f2f2"/>
    <circle id="Ellipse_111" data-name="Ellipse 111" cx="19.346" cy="19.346" r="19.346" transform="translate(696.213 91.235)" fill="#f2f2f2"/>
    <circle id="Ellipse_112" data-name="Ellipse 112" cx="19.346" cy="19.346" r="19.346" transform="translate(637.591 115.062)" fill="#f2f2f2"/>
    <circle id="Ellipse_113" data-name="Ellipse 113" cx="19.346" cy="19.346" r="19.346" transform="translate(664.746 173.69)" fill="#f2f2f2"/>
    <circle id="Ellipse_114" data-name="Ellipse 114" cx="19.346" cy="19.346" r="19.346" transform="translate(578.166 200.117)" fill="#f2f2f2"/>
    <path id="Path_809" data-name="Path 809" d="M811.384,647.8s4.109-51.237,72.007-57.074Z" transform="translate(-274.83 -254.104)" fill="#f2f2f2"/>
    <path id="Path_810" data-name="Path 810" d="M770.413,626.205s14.884-49.2-46.195-79.426Z" transform="translate(-254.727 -243.969)" fill="#f2f2f2"/>
    <path id="Path_811" data-name="Path 811" d="M224.726,579.273c-6.449,23.84-28.539,38.6-28.539,38.6S184.554,593.99,191,570.15s28.539-38.6,28.539-38.6S231.175,555.433,224.726,579.273Z" transform="translate(-131.307 -240.456)" fill="#d83d21"/>
    <path id="Path_812" data-name="Path 812" d="M158.579,579.273c6.449,23.84,28.539,38.6,28.539,38.6s11.634-23.887,5.184-47.727-28.539-38.6-28.539-38.6S152.13,555.433,158.579,579.273Z" transform="translate(-123.83 -240.456)" fill="#d83d21"/>
    <path id="Path_813" data-name="Path 813" d="M158.224,581.321c17.7,17.227,19.858,43.708,19.858,43.708s-26.53-1.449-44.226-18.675S114,562.646,114,562.646,140.528,564.095,158.224,581.321Z" transform="translate(-113.997 -247.628)" fill="#3f3d56"/>
    <path id="Path_814" data-name="Path 814" d="M217.149,581.321c-17.7,17.227-19.858,43.708-19.858,43.708s26.53-1.449,44.226-18.675,19.858-43.708,19.858-43.708S234.845,564.095,217.149,581.321Z" transform="translate(-133.207 -247.628)" fill="#3f3d56"/>
    <rect id="Rectangle_100" data-name="Rectangle 100" width="741.304" height="1.724" transform="translate(6.537 428.645)" fill="#2f2e41"/>
    <path id="Path_815" data-name="Path 815" d="M570.292,362.875s-7.694-7.694-25.389-6.155c0,0-170.8-17.7-174.649,13.849s-4.616,50.01,5.386,56.934c0,0,32.7,29.621,15.772,55.78l-9.233,15.388,362.377-3.078s3.847-56.165,15.388-66.936,15.388-67.705,0-69.244S566.061,349.411,570.292,362.875Z" transform="translate(-172.484 -198.996)" fill="#3f3d56"/>
    <path id="Path_816" data-name="Path 816" d="M359.913,447.694s-108.482,25.39-65.4,73.091l6.924,6.924-3.078,106.174h500.1l5.386-103.866L810,517.707s38.33-45.97-72.391-62.608l-19.934,50.3-336.988-2.308S378.378,446.155,359.913,447.694Z" transform="translate(-153.296 -221.11)" fill="#3f3d56"/>
    <rect id="Rectangle_101" data-name="Rectangle 101" width="31.545" height="23.851" transform="translate(154.299 405.848)" fill="#3f3d56"/>
    <rect id="Rectangle_102" data-name="Rectangle 102" width="31.545" height="23.851" transform="translate(608.232 405.848)" fill="#3f3d56"/>
    <path id="Path_817" data-name="Path 817" d="M564.426,516.113s-75.317-53.472-169.182.385l-27.7,40.008,5.386,33.083s194.653,3.078,196.961-17.7S564.426,516.113,564.426,516.113Z" transform="translate(-172.471 -231.442)" fill="#3f3d56"/>
    <path id="Path_818" data-name="Path 818" d="M801.033,518.066s-132.142-42.316-171.861,0l4.906,60.781s193.114,14.618,196.191,4.616,4.616-27.7,4.616-27.7Z" transform="translate(-232.808 -233.009)" fill="#3f3d56"/>
    <path id="Path_819" data-name="Path 819" d="M740.7,516.558s-132.142-42.316-171.861,0l.109,1.356c-.13-.629-.2-.971-.2-.971s-79.631-54.241-173.495-.385l-27.7,40.008,5.386,33.083s188.486,4.009,200.6-14.945l.213,2.635s193.114,14.618,196.192,4.616,4.616-27.7,4.616-27.7Z" transform="translate(-172.472 -231.502)" opacity="0.1"/>
    <path id="Path_820" data-name="Path 820" d="M386.548,380.86c37.394-.8,72.844-5.541,105.4-16.157.792,37.454,6.177,72.483,18.465,103.866-36.4-6.615-73.349-.069-110.79,18.465C406.352,453.177,400.538,417.584,386.548,380.86Z" transform="translate(-176.853 -201.978)" fill="#d83d21"/>
    <path id="Path_821" data-name="Path 821" d="M846.418,388.86c-37.394-.8-72.844-5.541-105.4-16.157-.792,37.454-6.177,72.483-18.465,103.866,36.4-6.615,73.349-.069,110.79,18.465C826.613,461.177,832.428,425.584,846.418,388.86Z" transform="translate(-254.342 -203.823)" fill="#d83d21"/>
    <path id="Path_822" data-name="Path 822" d="M570.32,376.486a26.037,26.037,0,0,1,7.127-3.574,181.731,181.731,0,0,1,50.216-10.931c14.932-1.059,31.115.2,42.777,9.583a14.709,14.709,0,0,1,4.339,5.055c1.467,3.166,1.023,6.846.548,10.3a11.642,11.642,0,0,1-1,3.879c-1.569,2.988-5.433,4.035-8.789,3.677s-6.505-1.778-9.815-2.437a43.877,43.877,0,0,0-6.2-.631l-20.761-1.124c-12.91-.7-25.99-1.386-38.654,1.219a38.5,38.5,0,0,0-11.168,3.848c-2.892,1.624-4.84,3.954-7.524.955C566.7,391.039,564.091,381.353,570.32,376.486Z" transform="translate(-218.389 -201.278)" fill="#2f2e41"/>
    <path id="Path_823" data-name="Path 823" d="M611.5,391.352s27.925-12.518,38.517,1.926-5.778,8.666-5.778,8.666l-18.3,5.778-20.221-3.852Z" transform="translate(-227.4 -206.963)" fill="#f2f2f2"/>
    <path id="Path_824" data-name="Path 824" d="M615.112,378.373s3.852,18.3.963,23.11,16.37,11.555,16.37,11.555l18.3-7.7s-4.815-29.851,0-35.628Z" transform="translate(-229.565 -203.132)" fill="#ffb9b9"/>
    <path id="Path_825" data-name="Path 825" d="M615.112,378.373s3.852,18.3.963,23.11,16.37,11.555,16.37,11.555l18.3-7.7s-4.815-29.851,0-35.628Z" transform="translate(-229.565 -203.132)" opacity="0.1"/>
    <path id="Path_826" data-name="Path 826" d="M588.575,661.034c2.755,5.282,4.541,11,6.363,16.676a1.357,1.357,0,0,0,1.685,1.121l17.128-.019c2.114,0,4.95-.681,4.928-2.8-.015-1.485-1.533-2.411-2.663-3.375-3.135-2.675-3.952-7.087-5.25-11A37.312,37.312,0,0,0,596.881,643a8.125,8.125,0,0,0-2.968-1.467,8.277,8.277,0,0,0-3.254.177c-3.007.607-14.234,2.682-12.113,7.056.913,1.883,4.3,3.843,5.717,5.6a40.233,40.233,0,0,1,4.312,6.671Z" transform="translate(-221.071 -265.8)" fill="#575a89"/>
    <path id="Path_827" data-name="Path 827" d="M665.308,638.158a38.915,38.915,0,0,1-2.014,3.7c-2.481,4.093-5.41,7.91-7.72,12.1a19.974,19.974,0,0,0-2.814,8.421,9.354,9.354,0,0,0,3.269,7.959c2.486,1.887,5.9,1.974,8.985,1.534s6.162-1.325,9.275-1.092c-1.049-5.938,3.959-11.165,5.211-17.063.352-1.657.4-3.375.876-5a24.512,24.512,0,0,1,1.938-4.287A55.417,55.417,0,0,0,687.545,629c.118-.651-15.225-.758-16.664-.447C666.389,629.529,667.046,634.433,665.308,638.158Z" transform="translate(-238.244 -262.79)" fill="#575a89"/>
    <path id="Path_828" data-name="Path 828" d="M514.484,514.2c-4.38,6.854-3.371,15.938-.294,23.468s7.973,14.187,11.324,21.6c2.136,4.725,3.635,9.736,6.04,14.33,2.979,5.689,7.328,10.7,9.328,16.806,1.274,3.89,1.567,8.153,3.631,11.688a35.831,35.831,0,0,0,4.253,5.276,48.758,48.758,0,0,1,9.8,17.509c1.886-5.62,7.536-9.3,13.338-10.52s11.814-.39,17.684.439c-3.274-5.073-6.581-10.21-8.532-15.923-1.888-5.526-2.445-11.4-3.716-17.1-2.608-11.687-8.178-22.467-13.693-33.1l28.345-2.248a110.5,110.5,0,0,1,13.926-.517c7.316.345,14.484,2.138,21.761,2.967s14.976.612,21.461-2.792a102.846,102.846,0,0,0-18.452,60.737,23.515,23.515,0,0,1,35.6,8.4c11.108-15.18,9.788-36.313,18.59-52.936,1.81-3.418,4.028-6.6,5.982-9.941,3.864-6.6,6.666-13.761,9.451-20.886,2.462-6.3,4.943-13.3,2.581-19.641a20.506,20.506,0,0,0-4.208-6.471c-5.079-5.6-12.148-9.741-19.705-9.914-11.6-.265-21.185,8.335-31.362,13.911a72.171,72.171,0,0,1-39.606,8.214c-13.979-.99-27.33-5.566-40.648-9.6a193.409,193.409,0,0,0-20.286-5.233c-5.711-1.071-11.151.115-16.779,1.576C524.169,505.9,518.011,508.683,514.484,514.2Z" transform="translate(-205.678 -232.126)" fill="#2f2e41"/>
    <path id="Path_829" data-name="Path 829" d="M655.366,348.532a28.911,28.911,0,0,1-28.888,28.888,28.19,28.19,0,0,1-5.132-.462,28.887,28.887,0,1,1,34.02-28.426Z" transform="translate(-225.524 -191.586)" fill="#ffb9b9"/>
    <path id="Path_830" data-name="Path 830" d="M603.854,392.717s5.3,2.407,7.222,4.333,7.7,12.518,17.333,5.778S639,392.235,641.89,392.235s6.74,5.778,6.74,5.778l26.48,79.441a110.9,110.9,0,0,1-24.555,20.7c-15.407,9.629-33.7,14.444-42.369,10.592s-25.036-6.74-27.925-14.444-7.7-30.814-7.7-30.814l13.481-58.739Z" transform="translate(-219.751 -208.328)" fill="#f2f2f2"/>
    <path id="Path_831" data-name="Path 831" d="M595.673,471.251c2.1-4.535,2.4-9.667,2.582-14.661a88.89,88.89,0,0,0-.392-14.831c-.853-6.441-2.951-12.647-4.276-19.008a80.353,80.353,0,0,1-1.684-16.964c.019-2.6.208-5.338,1.624-7.518.988-1.521,2.535-2.7,3.152-4.4,1.211-3.344-1.781-6.846-5.061-8.223a19.912,19.912,0,0,0-12.465-.5,59.307,59.307,0,0,0-11.725,4.8c-2.739,1.356-5.537,2.754-7.661,4.952-2.989,3.093-4.3,7.4-5.365,11.569-.849,3.336-1.6,6.815-.958,10.2,1.049,5.491,5.526,9.621,7.912,14.677,2.771,5.871,2.584,12.712,1.482,19.11s-3.059,12.653-3.662,19.117.323,13.412,4.372,18.486c1.65,2.068,6.127,6.968,9.148,6.414,2.373-.436,5.814-5.66,7.726-7.316C585.948,482.357,592.5,478.1,595.673,471.251Z" transform="translate(-215.287 -206.517)" fill="#2f2e41"/>
    <path id="Path_832" data-name="Path 832" d="M669.312,385.765c.084,5.371-2.283,10.475-5.067,15.069s-6.054,8.938-8.106,13.9a31.861,31.861,0,0,0-1.487,19.6,63.229,63.229,0,0,0,2.124,6.559l5.276,14.472a25.114,25.114,0,0,0,3.059,6.423,20.743,20.743,0,0,0,4.158,4,38.806,38.806,0,0,0,13.566,7.077,22.943,22.943,0,0,0,15.085-.861,218.288,218.288,0,0,1,9.37-57.854c1.055-3.466,2.208-7.115,1.394-10.646-.911-3.954-4.088-6.924-7.107-9.635-9.234-8.292-19.389-17-31.749-18.12C662.675,375.105,669.251,381.882,669.312,385.765Z" transform="translate(-238.477 -204.516)" fill="#2f2e41"/>
    <path id="Path_833" data-name="Path 833" d="M588.605,529.633c.732,1.434,1.188,2.995,1.912,4.433a24.765,24.765,0,0,0,3.929,5.283c6.438,7.139,14.308,14.251,23.912,14.682a6.557,6.557,0,0,0,2.818-.355,5.587,5.587,0,0,0,3-4.288c.681-3.729-.965-7.45-2.613-10.864-3.572-7.4-7.591-14.985-14.28-19.757a26.793,26.793,0,0,0-23.115-3.478c-3.484,1.073-9.261,2.947-4.648,6.126C583.019,523.826,586.576,525.662,588.605,529.633Z" transform="translate(-220.961 -236.431)" fill="#ffb9b9"/>
    <path id="Path_834" data-name="Path 834" d="M593.489,684.7c-2.871,3.9-2.3,9.478-4.838,13.6-2.2,3.573-6.358,5.447-9.115,8.613a23.089,23.089,0,0,0-2.344,3.371c-2.558,4.284-4.637,9.775-2.118,14.082,2.026,3.465,6.286,4.819,10.192,5.742,4.937,1.167,10.067,2.1,15.061,1.209s9.875-3.95,11.656-8.7a33.611,33.611,0,0,1,1.246-3.517c2.707-5.329,11.2-5.387,13.968-10.683,1.939-3.706.157-8.187-1.625-11.971l-5.441-11.559c-1.806-3.836-9.125-1.63-12.941-2.549C602.213,681.142,597.069,679.822,593.489,684.7Z" transform="translate(-220.068 -274.975)" fill="#2f2e41"/>
    <path id="Path_835" data-name="Path 835" d="M651.086,672.234a15.47,15.47,0,0,0-4.923,6.744c-2.693,6.212-3.617,13.022-4.515,19.733a23.9,23.9,0,0,0-.156,8.094c1.16,5.481,6.127,9.516,11.472,11.192s11.079,1.418,16.674,1.143a11.939,11.939,0,0,0,5.241-1.064c2.812-1.55,3.911-5.2,3.429-8.37s-2.216-6-3.914-8.725-3.434-5.549-3.92-8.723c-.818-5.339,1.49-13.177-1.79-18.008S655.472,669.159,651.086,672.234Z" transform="translate(-235.581 -272.435)" fill="#2f2e41"/>
    <path id="Path_836" data-name="Path 836" d="M651.834,328.972a7.332,7.332,0,0,0-3.18-4.151,16.827,16.827,0,0,0-.671-5.478c-1.749-5.172-5.894-4.875-9.8-7.162-1.7-.992-1.592-1.869-2.475-3.5a12.983,12.983,0,0,0-5-5.1c-2.509-1.6-5.157-3.244-8.125-3.447-6.237-.425-11.019,5.441-16.98,7.324-2.627.83-5.451.864-8.092,1.648s-5.277,2.658-5.67,5.385c-.182,1.259.139,2.551-.045,3.809-.366,2.5-2.561,4.254-4.031,6.311-3.249,4.55-2.877,10.978-.279,15.929a22.4,22.4,0,0,0,1.874,2.932,18.035,18.035,0,0,0,1.978,6.7c2.6,4.951,7.069,8.65,11.74,11.724a27.711,27.711,0,0,1-.693-5,3.449,3.449,0,0,1,.213-1.656c.52-1.087,1.895-1.376,2.942-1.972,2.17-1.233,3.022-3.963,3.084-6.459s-.466-5-.2-7.478a4.086,4.086,0,0,1,1.4-3.006,4.831,4.831,0,0,1,2.637-.629c4.447-.181,9.094-.263,13.016-2.366a19.291,19.291,0,0,1,4.051-2.049c3.334-.869,6.741,1.467,8.662,4.327s2.879,6.263,4.652,9.217,4.835,5.588,8.262,5.238a1.372,1.372,0,0,0,1.023-.455,1.534,1.534,0,0,0,.189-.872l.192-13.1A19.8,19.8,0,0,0,651.834,328.972Z" transform="translate(-222.719 -187.081)" fill="#2f2e41"/>
    <path id="Path_837" data-name="Path 837" d="M547.429,423.054c-2.756,4.066-5.934,7.976-7.449,12.649-.891,2.747-1.167,5.65-1.812,8.464-2.147,9.374-8.351,17.7-8.974,27.3a12.977,12.977,0,0,0,.911,6.268c1.78,3.871,6.039,5.911,10.1,7.194s8.425,2.208,11.668,4.971a35.755,35.755,0,0,1,4.421,5.126,42.828,42.828,0,0,0,20.457,14c-.636-4.381-.934-9.663,2.568-12.371,1.9-1.466,4.429-1.727,6.817-1.933l11.282-.975a144.985,144.985,0,0,0-24.733-19.267c-3.12-1.927-6.515-3.96-7.94-7.339a17.725,17.725,0,0,1-.9-6.771,166.831,166.831,0,0,0-2.125-25.048c-.929-5.752-2.159-11.453-3.565-17.107-.395-1.587-2.729-8.707-5.6-7.041-.677.392-1.31,4.909-1.7,5.846A35.465,35.465,0,0,1,547.429,423.054Z" transform="translate(-209.735 -212.636)" fill="#2f2e41"/>
    <path id="Path_838" data-name="Path 838" d="M571.422,442.736A44.193,44.193,0,0,1,567.2,462.43a16.272,16.272,0,0,0-1.653,4.338c-.505,3.237,1.337,6.371,3.443,8.882A36.521,36.521,0,0,0,584.6,486.513" transform="translate(-218.115 -219.974)" opacity="0.1"/>
    <path id="Path_839" data-name="Path 839" d="M666.271,383.237l.68.108a2.27,2.27,0,0,1-1.887-2.6l7.026-44.39a2.27,2.27,0,0,1,2.6-1.887l-.68-.108a3.646,3.646,0,0,1,3.031,4.171l-6.6,41.672a3.646,3.646,0,0,1-4.171,3.031Z" transform="translate(-241.078 -194.981)" fill="#2f2e41"/>
    <path id="Path_840" data-name="Path 840" d="M1.342,0H2.385V49.483H1.342A1.342,1.342,0,0,1,0,48.141V1.342A1.342,1.342,0,0,1,1.342,0Z" transform="translate(431.363 139.135) rotate(8.995)" fill="#d83d21"/>
    <rect id="Rectangle_103" data-name="Rectangle 103" width="0.459" height="4.036" rx="0.168" transform="translate(432.498 145.765) rotate(8.995)" fill="#464353"/>
    <path id="Path_841" data-name="Path 841" d="M692.141,378.227c1.062-2.676,2.142-5.443,2.069-8.32a16.765,16.765,0,0,0-2.309-7.386,37.745,37.745,0,0,0-6.023-8.269c-2.826-2.94-6.908-5.565-10.762-4.231-3.06,1.06-4.8,4.245-5.936,7.279a9.15,9.15,0,0,0-.772,4.735c.375,2.089,1.989,3.693,3.158,5.464,1.833,2.777,2.618,6.1,3.371,9.337l1.888,8.13,3.243,13.964c-.085-.368,6.023-6.154,6.749-7.386C689.153,387.578,690.441,382.511,692.141,378.227Z" transform="translate(-241.845 -198.51)" fill="#ffb9b9"/>
    <path id="Path_842" data-name="Path 842" d="M708.846,402.449l4.607,9.582a23.024,23.024,0,0,1,2.9,12.957l.273,28.744c.037,3.841.066,7.74-.945,11.446A9.167,9.167,0,0,1,714.1,468.6a10.684,10.684,0,0,1-2.725,2.2c-8.72,5.448-20.027,8.545-29.24,3.979a40.467,40.467,0,0,1-5.995-3.913c-3.672-2.719-7.4-5.491-10.145-9.142-2.875-3.821,10.344-18.359,8.41-22.733-3.465-7.835-1.547-26.415-6.924-33.083-.782-.97,6.33-.1,6.3-1.343-.057-2.519,5.985-6.162,8.316-7.121,3.982-1.638,8.566-4.979,9.232-9.233,8.467,11.1-15.308,44.654-1.947,48.711a1.379,1.379,0,0,0,2.121-1.178c.758-3.173,1.027-6.441,1.581-9.656a55,55,0,0,1,5.8-16.734C700.469,406.414,705.593,395.685,708.846,402.449Z" transform="translate(-241.204 -207.398)" fill="#2f2e41"/>
    <path id="Path_843" data-name="Path 843" d="M701.922,435.284c-.679,1.826-.062,3.845.461,5.721a57.643,57.643,0,0,1,2.1,16.725.609.609,0,0,1-.712.73c-2.223.136-4.767.151-6.275-1.488" transform="translate(-248.565 -218.256)" opacity="0.1"/>
    <path id="Path_844" data-name="Path 844" d="M216.389,692.906H152.531l-11.108-37.869A15.478,15.478,0,0,1,156.275,635.2h55.864a15.478,15.478,0,0,1,14.9,19.652Z" transform="translate(-120.178 -264.361)" fill="#3f3d56"/>
    <path id="Path_845" data-name="Path 845" d="M278.05,334.408a10,10,0,1,1,10-10A10,10,0,0,1,278.05,334.408Zm0-18.465a8.463,8.463,0,1,0,8.463,8.463A8.463,8.463,0,0,0,278.05,315.943Z" transform="translate(-149.525 -190.378)" fill="#3f3d56"/>
    <path id="Path_846" data-name="Path 846" d="M752.05,275.408a10,10,0,1,1,10-10,10,10,0,0,1-10,10Zm0-18.465a8.463,8.463,0,1,0,8.463,8.463A8.463,8.463,0,0,0,752.05,256.943Z" transform="translate(-258.839 -176.771)" fill="#3f3d56"/>
    <path id="Path_847" data-name="Path 847" d="M536.052,181.207h-20v-20h20Zm-18.465-1.539h16.926V162.742H517.587Z" transform="translate(-206.719 -155.047)" fill="#3f3d56"/>
  </g>
</svg>
