<svg xmlns="http://www.w3.org/2000/svg" width="85.695" height="85.695" viewBox="0 0 85.695 85.695">
  <path id="Icon_awesome-clock" data-name="Icon awesome-clock" d="M43.41.562A42.847,42.847,0,1,0,86.257,43.41,42.84,42.84,0,0,0,43.41.562ZM53.275,61.05,38.037,49.975A2.087,2.087,0,0,1,37.19,48.3V19.222a2.079,2.079,0,0,1,2.073-2.073h8.293a2.079,2.079,0,0,1,2.073,2.073V43.013L60.6,50.995a2.072,2.072,0,0,1,.449,2.9l-4.872,6.7A2.088,2.088,0,0,1,53.275,61.05Z" transform="translate(-0.563 -0.563)"/>
</svg>
