<svg xmlns="http://www.w3.org/2000/svg" width="85.695" height="85.695" viewBox="0 0 85.695 85.695">
  <path id="Icon_ionic-ios-happy" data-name="Icon ionic-ios-happy" d="M46.223,3.375A42.848,42.848,0,1,0,89.07,46.223,42.841,42.841,0,0,0,46.223,3.375ZM61.055,34.687a4.944,4.944,0,1,1-4.944,4.944A4.932,4.932,0,0,1,61.055,34.687Zm-29.664,0a4.944,4.944,0,1,1-4.944,4.944A4.932,4.932,0,0,1,31.391,34.687ZM46.223,69.5A20.225,20.225,0,0,1,26.818,54.936,1.655,1.655,0,0,1,28.4,52.815H64.021a1.657,1.657,0,0,1,1.586,2.122A20.181,20.181,0,0,1,46.223,69.5Z" transform="translate(-3.375 -3.375)"/>
</svg>
