<svg xmlns="http://www.w3.org/2000/svg" xmlns:xlink="http://www.w3.org/1999/xlink" width="585.774" height="468.091" viewBox="0 0 585.774 468.091">
  <defs>
    <linearGradient id="linear-gradient" x1="0.389" y1="-0.425" x2="-0.328" y2="0.276" gradientUnits="objectBoundingBox">
      <stop offset="0" stop-color="#d54926"/>
      <stop offset="1" stop-color="#c12424"/>
    </linearGradient>
  </defs>
  <path id="Path_236" data-name="Path 236" d="M340.829-19.581c17.242,41.071-5.888,114.413,23.97,166.8,30.278,52.806,113.544,85.077,129.524,121.538,15.98,36.042,49.623,51.482,0,74.532-29.105,84-181.67,53.292-221.2,47.006s-71.07-24.727-120.272-21.793C104.07,371.436,37.625,395.744-8.213,381.075s-71.07-68.313-49.2-110.641c21.447-42.748,89.994-74.18,116.487-121.957,26.073-48.2,9.672-113.156,27.755-153.808C104.911-46.4,157.057-62.748,212.146-66.52,266.816-69.873,324.008-60.652,340.829-19.581Z" transform="translate(65.398 67.151)" fill="url(#linear-gradient)"/>
</svg>
