<svg xmlns="http://www.w3.org/2000/svg" xmlns:xlink="http://www.w3.org/1999/xlink" viewBox="0 0 115.2 81.95"><defs><style>.cls-1{fill:#132ed1;}.cls-2{fill:#09158d;}.cls-3,.cls-5{stroke:#000;stroke-miterlimit:10;}.cls-3{stroke-width:3px;fill:url(#radial-gradient);}.cls-4{fill:#fff;}.cls-5{fill:none;stroke-width:4px;}</style><radialGradient id="radial-gradient" cx="63.56" cy="-2.32" r="50.9" gradientTransform="translate(0.12 -0.68)" gradientUnits="userSpaceOnUse"><stop offset="0.74" stop-color="#9acade"/><stop offset="0.86" stop-color="#99c8dc"/><stop offset="0.9" stop-color="#94c2d5"/><stop offset="0.94" stop-color="#8cb7ca"/><stop offset="0.96" stop-color="#80a7b9"/><stop offset="0.98" stop-color="#7193a3"/><stop offset="1" stop-color="#617d8b"/></radialGradient></defs><title>Asset 12</title><g id="Layer_2" data-name="Layer 2"><g id="Layer_1-2" data-name="Layer 1"><path class="cls-1" d="M20.24,43.1C15.3,59.73,17.9,65.44,54.37,71.42,149.16,86.12,54.84-68.89,20.24,43.1Z"/><path class="cls-1" d="M6.06,51.73c-2.23,10.44,13.06,4.43,11.32-3.47l4.28-15.91C11.89,32.63,6.16,37.65,6.06,51.73Z"/><path class="cls-2" d="M93.75,41c-2.61,10.47,3.27,26.11-19,30.45C62.34,73.83,23.8,69.5,17.82,50.34c0,0-2.76,24.88-2.76,24.88s37.21,9.08,80.78.37h0C95.3,77.21,102.88,53.91,93.75,41Z"/><path class="cls-2" d="M18.46,48s-1.55,7.22-8.14,9S7.54,45.44,7.54,45.44L2.2,73.61l12.48,3Z"/><path class="cls-3" d="M83.79,52.14a3.64,3.64,0,0,0,3-4q-.9-8.28-1.71-16.71c0-.57-.09-1.12-.12-1.67a3.64,3.64,0,0,0-3.78-3.47c-10.31.37-20.73.63-31,1a3.68,3.68,0,0,0-3.5,3.23c-.39,3.1-.72,8.88-.13,18.82a3.66,3.66,0,0,0,3.5,3.45C57.42,53.08,75.29,53.57,83.79,52.14Z"/><ellipse class="cls-4" cx="59.71" cy="31.78" rx="3.8" ry="2.16" transform="translate(-3.32 7.22) rotate(-6.74)"/><ellipse class="cls-4" cx="73.32" cy="32.27" rx="3.07" ry="7.54" transform="translate(33.56 101.82) rotate(-84)"/><path class="cls-5" d="M96.64,76.53c-8.38,5.65-78.53,4.06-94.06-3,2.14-5.24.83-50.2,20.6-41.15C52.09-35.08,108.49,23.41,96.64,76.53Z"/><path class="cls-5" d="M15.06,76.7c.94-28.77,8.12-44.35,8.12-44.35"/></g></g></svg>