<svg xmlns="http://www.w3.org/2000/svg" xmlns:xlink="http://www.w3.org/1999/xlink" width="690" height="466.533" viewBox="0 0 690 466.533">
  <defs>
    <linearGradient id="linear-gradient" x1="0.499" y1="1" x2="0.499" y2="-0.001" gradientUnits="objectBoundingBox">
      <stop offset="0" stop-color="gray" stop-opacity="0.251"/>
      <stop offset="0.54" stop-color="gray" stop-opacity="0.122"/>
      <stop offset="1" stop-color="gray" stop-opacity="0.102"/>
    </linearGradient>
    <linearGradient id="linear-gradient-2" x1="0.5" y1="1" x2="0.5" y2="0" xlink:href="#linear-gradient"/>
  </defs>
  <g id="Group_51" data-name="Group 51" transform="translate(4.101 -70.42)">
    <rect id="Rectangle_14" data-name="Rectangle 14" width="162.409" height="109.116" rx="9.61" transform="translate(296.841 105.114)" fill="#474059"/>
    <rect id="Rectangle_15" data-name="Rectangle 15" width="155.231" height="89.141" transform="translate(300.256 117.856)" fill="#fff"/>
    <ellipse id="Ellipse_18" data-name="Ellipse 18" cx="1.368" cy="1.478" rx="1.368" ry="1.478" transform="translate(376.504 111.77)" fill="#fff"/>
    <rect id="Rectangle_16" data-name="Rectangle 16" width="28.457" height="30.038" transform="translate(363.39 210.277)" fill="#474059"/>
    <path id="Path_239" data-name="Path 239" d="M460.583,326.95h34.78a4.743,4.743,0,0,1,4.743,4.743H455.84A4.743,4.743,0,0,1,460.583,326.95Z" transform="translate(-99.564 -89.007)" fill="#474059"/>
    <rect id="Rectangle_17" data-name="Rectangle 17" width="116.989" height="40.314" transform="translate(180.003 263.238)" fill="#c0bccf"/>
    <rect id="Rectangle_18" data-name="Rectangle 18" width="25.295" height="219.749" transform="translate(657.443 243.477)" fill="#c0bccf"/>
    <rect id="Rectangle_19" data-name="Rectangle 19" width="116.989" height="2.371" transform="translate(180.003 263.238)" opacity="0.1"/>
    <rect id="Rectangle_20" data-name="Rectangle 20" width="25.295" height="22.133" transform="translate(657.443 243.477)" opacity="0.1"/>
    <rect id="Rectangle_21" data-name="Rectangle 21" width="116.989" height="40.314" transform="translate(180.003 301.971)" fill="#c0bccf"/>
    <circle id="Ellipse_19" data-name="Ellipse 19" cx="7.114" cy="7.114" r="7.114" transform="translate(231.383 314.618)" fill="#d83d21"/>
    <circle id="Ellipse_20" data-name="Ellipse 20" cx="7.114" cy="7.114" r="7.114" transform="translate(231.383 275.886)" fill="#d83d21"/>
    <rect id="Rectangle_22" data-name="Rectangle 22" width="116.989" height="40.314" transform="translate(180.003 342.285)" fill="#c0bccf"/>
    <circle id="Ellipse_21" data-name="Ellipse 21" cx="7.114" cy="7.114" r="7.114" transform="translate(231.383 354.142)" fill="#d83d21"/>
    <rect id="Rectangle_23" data-name="Rectangle 23" width="116.989" height="40.314" transform="translate(180.003 382.598)" fill="#c0bccf"/>
    <circle id="Ellipse_22" data-name="Ellipse 22" cx="7.114" cy="7.114" r="7.114" transform="translate(231.383 394.455)" fill="#d83d21"/>
    <rect id="Rectangle_24" data-name="Rectangle 24" width="116.989" height="40.314" transform="translate(180.003 422.912)" fill="#c0bccf"/>
    <circle id="Ellipse_23" data-name="Ellipse 23" cx="7.114" cy="7.114" r="7.114" transform="translate(231.383 434.769)" fill="#d83d21"/>
    <rect id="Rectangle_25" data-name="Rectangle 25" width="116.989" height="3.162" transform="translate(180.003 339.913)" opacity="0.1"/>
    <rect id="Rectangle_26" data-name="Rectangle 26" width="116.989" height="3.162" transform="translate(180.003 300.39)" opacity="0.1"/>
    <rect id="Rectangle_27" data-name="Rectangle 27" width="116.989" height="3.162" transform="translate(180.003 380.227)" opacity="0.1"/>
    <rect id="Rectangle_28" data-name="Rectangle 28" width="116.989" height="3.162" transform="translate(180.003 420.541)" opacity="0.1"/>
    <path id="Path_240" data-name="Path 240" d="M167.633,572.981S165.024,495.7,123.216,452.04a117.135,117.135,0,0,1-32.124-66.778,197.033,197.033,0,0,1-.98-36.022" transform="translate(-51.839 -138.773)" fill="none" stroke="#535461" stroke-miterlimit="10" stroke-width="2"/>
    <path id="Path_241" data-name="Path 241" d="M56.867,308.52c2.861,8.632,26.781,28.457,26.781,28.457s7.328-30.2,4.466-38.828a16.46,16.46,0,0,0-31.247,10.363Z" transform="translate(-44.782 -125.703)" fill="#d83d21"/>
    <path id="Path_242" data-name="Path 242" d="M42.824,377.784c7.114,5.691,37.942,9.343,37.942,9.343S70.49,357.794,63.376,352.11a16.461,16.461,0,1,0-20.6,25.682Z" transform="translate(-40.715 -138.616)" fill="#d83d21"/>
    <path id="Path_243" data-name="Path 243" d="M76.444,479.72c9,1.328,37.476-11.066,37.476-11.066s-23.674-20.165-32.662-21.5a16.46,16.46,0,1,0-4.814,32.567Z" transform="translate(-46.116 -159.252)" fill="#d83d21"/>
    <path id="Path_244" data-name="Path 244" d="M121.679,551.63c8.64,2.83,38.812-4.6,38.812-4.6s-19.928-23.848-28.567-26.678a16.462,16.462,0,0,0-10.276,31.279Z" transform="translate(-56.159 -174.454)" fill="#d83d21"/>
    <path id="Path_245" data-name="Path 245" d="M126.3,379.343c-4.2,8.063-30.962,23.856-30.962,23.856S92.9,372.221,97.1,364.15a16.458,16.458,0,1,1,29.2,15.193Z" transform="translate(-52.872 -140.04)" fill="#d83d21"/>
    <path id="Path_246" data-name="Path 246" d="M175.978,462.836c-6.419,6.442-36.677,13.493-36.677,13.493s6.948-30.291,13.359-36.733a16.458,16.458,0,1,1,23.319,23.232Z" transform="translate(-62.231 -156.691)" fill="#d83d21"/>
    <path id="Path_247" data-name="Path 247" d="M215.021,552.277c-5.233,7.43-33.871,19.5-33.871,19.5s1.723-31.026,6.964-38.464a16.457,16.457,0,1,1,26.876,18.971Z" transform="translate(-71 -175.789)" fill="#d83d21"/>
    <path id="Path_248" data-name="Path 248" d="M176.67,559.387s23.714-34.5,19.556-66.952a63.426,63.426,0,0,1,7.494-39.412A106.716,106.716,0,0,1,214.873,437" transform="translate(-70.062 -157.162)" fill="none" stroke="#535461" stroke-miterlimit="10" stroke-width="2"/>
    <path id="Path_249" data-name="Path 249" d="M221.749,409.513c-1.526,4.68,2.506,21.011,2.506,21.011s12.908-10.8,14.434-15.469a8.91,8.91,0,0,0-16.94-5.533Z" transform="translate(-79.435 -150.116)" fill="#d83d21"/>
    <path id="Path_250" data-name="Path 250" d="M193.331,435.152c1.257,4.743,13.525,16.276,13.525,16.276s4.964-16.078,3.707-20.837a8.913,8.913,0,0,0-17.232,4.561Z" transform="translate(-73.49 -154.429)" fill="#d83d21"/>
    <path id="Path_251" data-name="Path 251" d="M175.173,490.355c3.486,3.47,19.888,7.225,19.888,7.225s-3.826-16.386-7.32-19.856a8.915,8.915,0,1,0-12.568,12.647Z" transform="translate(-69.197 -165.152)" fill="#d83d21"/>
    <path id="Path_252" data-name="Path 252" d="M171.753,536.269c2.854,4.008,18.386,10.482,18.386,10.482s-1-16.8-3.857-20.805a8.911,8.911,0,0,0-14.529,10.323Z" transform="translate(-68.686 -175.013)" fill="#d83d21"/>
    <path id="Path_253" data-name="Path 253" d="M227.033,462.742c-4.419,2.166-21.153.427-21.153.427s8.9-14.276,13.327-16.41a8.91,8.91,0,1,1,7.833,16.007Z" transform="translate(-76.182 -159.016)" fill="#d83d21"/>
    <path id="Path_254" data-name="Path 254" d="M222.283,515.761c-4.869.735-20.283-5.889-20.283-5.889s12.766-10.956,17.635-11.7a8.911,8.911,0,1,1,2.68,17.619Z" transform="translate(-75.369 -169.958)" fill="#d83d21"/>
    <path id="Path_255" data-name="Path 255" d="M210.136,566.923c-4.672,1.581-21.026-2.371-21.026-2.371s10.734-12.956,15.406-14.513a8.913,8.913,0,0,1,5.62,16.916Z" transform="translate(-72.668 -180.752)" fill="#d83d21"/>
    <path id="Path_256" data-name="Path 256" d="M221.749,409.513c-1.526,4.68,2.506,21.011,2.506,21.011s12.908-10.8,14.434-15.469a8.91,8.91,0,0,0-16.94-5.533Z" transform="translate(-79.435 -150.116)" fill="#fff" opacity="0.5"/>
    <path id="Path_257" data-name="Path 257" d="M193.331,435.152c1.257,4.743,13.525,16.276,13.525,16.276s4.964-16.078,3.707-20.837a8.913,8.913,0,0,0-17.232,4.561Z" transform="translate(-73.49 -154.429)" fill="#fff" opacity="0.5"/>
    <path id="Path_258" data-name="Path 258" d="M175.173,490.355c3.486,3.47,19.888,7.225,19.888,7.225s-3.826-16.386-7.32-19.856a8.915,8.915,0,1,0-12.568,12.647Z" transform="translate(-69.197 -165.152)" fill="#fff" opacity="0.5"/>
    <path id="Path_259" data-name="Path 259" d="M171.753,536.269c2.854,4.008,18.386,10.482,18.386,10.482s-1-16.8-3.857-20.805a8.911,8.911,0,0,0-14.529,10.323Z" transform="translate(-68.686 -175.013)" fill="#fff" opacity="0.5"/>
    <path id="Path_260" data-name="Path 260" d="M227.033,462.742c-4.419,2.166-21.153.427-21.153.427s8.9-14.276,13.327-16.41a8.91,8.91,0,1,1,7.833,16.007Z" transform="translate(-76.182 -159.016)" fill="#fff" opacity="0.5"/>
    <path id="Path_261" data-name="Path 261" d="M222.283,515.761c-4.869.735-20.283-5.889-20.283-5.889s12.766-10.956,17.635-11.7a8.911,8.911,0,1,1,2.68,17.619Z" transform="translate(-75.369 -169.958)" fill="#fff" opacity="0.5"/>
    <path id="Path_262" data-name="Path 262" d="M210.136,566.923c-4.672,1.581-21.026-2.371-21.026-2.371s10.734-12.956,15.406-14.513a8.913,8.913,0,0,1,5.62,16.916Z" transform="translate(-72.668 -180.752)" fill="#fff" opacity="0.5"/>
    <path id="Path_263" data-name="Path 263" d="M173.151,625.843H105.7L88.84,522.98H190.019Z" transform="translate(-22.664 -130.082)" fill="#474059"/>
    <path id="Path_264" data-name="Path 264" d="M181.279,522.98,165.525,619.1H108.77l1.107,6.743h67.45L194.2,522.98Z" transform="translate(-26.84 -130.082)" opacity="0.1"/>
    <rect id="Rectangle_29" data-name="Rectangle 29" width="508.268" height="23.714" transform="translate(177.631 240.315)" fill="#c0bccf"/>
    <rect id="Rectangle_30" data-name="Rectangle 30" width="72.723" height="76.857" transform="translate(304.106 124.022)" fill="#e8eaf1"/>
    <rect id="Rectangle_31" data-name="Rectangle 31" width="69.561" height="73.513" transform="translate(305.686 125.698)" fill="#fff"/>
    <path id="Path_265" data-name="Path 265" d="M491.251,296.007c.972-7.7-.972-8.181-.972-8.181l-2.79-1.336a11.57,11.57,0,0,0,.055-1.36,9.78,9.78,0,0,0,0-1.13c-.277-3.035-2.079-5.683-3.359-8.45a25.351,25.351,0,0,1-2.2-8.086c-.34-3.454,0-7.043-1.186-10.276a18.479,18.479,0,0,0-4.925-6.759,24.929,24.929,0,0,0-7.9-5.359,13.042,13.042,0,0,0-9.414-.269c-2.688,1.059-4.743,3.162-6.782,5.241a23.9,23.9,0,0,0-3.834,4.664,21.079,21.079,0,0,0-2.158,7.051,116.609,116.609,0,0,0-1.328,11.786c-.213,3.288-.538,7.027-3.162,9.051-1.288.988-3.091,1.541-3.684,3.035a3.321,3.321,0,0,0-.19,1.407,5.617,5.617,0,0,0,.079,1.194,3.522,3.522,0,0,0,.134.688,53.792,53.792,0,0,0-1.9,6.158,162.4,162.4,0,0,0-3.9,21.651h46.89a5.533,5.533,0,0,0,1.336,0h12.2Z" transform="translate(-123.529 -116.732)" fill="url(#linear-gradient)"/>
    <rect id="Rectangle_32" data-name="Rectangle 32" width="26.915" height="20.307" transform="translate(327.155 147.348)" fill="#b96b6b"/>
    <rect id="Rectangle_33" data-name="Rectangle 33" width="26.915" height="20.307" transform="translate(327.155 147.348)" opacity="0.1"/>
    <path id="Path_266" data-name="Path 266" d="M483.173,292.146l-10.387,14.639-10.9-.941s-14.165.941-4.743-9.92c4.537-5.217,6.023-9.565,6.324-12.647a9.825,9.825,0,0,0-.672-5.272l11.81-1.415a8.805,8.805,0,0,0-.19,4.925C475.948,287.633,483.173,292.146,483.173,292.146Z" transform="translate(-128.153 -123.55)" fill="#ffb9b9"/>
    <path id="Path_267" data-name="Path 267" d="M476.852,281.48a11.8,11.8,0,0,1-10.94,1.747,9.826,9.826,0,0,0-.672-5.272l11.81-1.415A8.806,8.806,0,0,0,476.852,281.48Z" transform="translate(-130.528 -123.54)" opacity="0.1"/>
    <circle id="Ellipse_24" data-name="Ellipse 24" cx="11.81" cy="11.81" r="11.81" transform="translate(327.385 136.242)" fill="#ffb9b9"/>
    <path id="Path_268" data-name="Path 268" d="M466.8,306.072s4.253-5.193,4.253-9.446a9.549,9.549,0,0,1,5.668-4.743c4.253-1.415,3.778,0,3.778,0l2.83,11.335-.941,20.307.474,2.371H447.91l2.371-9.446-.482-8.007,1.889-12.276,5.668-3.3,4.253,5.668Z" transform="translate(-126.896 -126.623)" opacity="0.1"/>
    <path id="Path_269" data-name="Path 269" d="M466.8,306.682s4.253-5.193,4.253-9.446a9.549,9.549,0,0,1,5.668-4.743c4.253-1.415,3.778,0,3.778,0l2.83,11.335-.941,20.307.474,2.371H447.91l2.371-9.446-.474-8.031,1.889-12.276,5.668-3.3,4.253,5.668Z" transform="translate(-126.896 -126.751)" fill="#fec5d9"/>
    <path id="Path_270" data-name="Path 270" d="M457.191,292.09l-14.639,2.371s-2.371-.474-5.193,10.861a161.262,161.262,0,0,0-3.778,21.248h18.26s1.1-18.892,3.952-20.307l3.952-6.11s-6.324-.5-5.391-3.8S457.191,292.09,457.191,292.09Z" transform="translate(-123.894 -126.798)" opacity="0.1"/>
    <path id="Path_271" data-name="Path 271" d="M456.6,292.09l-14.639,2.371s-2.371-.474-5.193,10.861A161.244,161.244,0,0,0,433,326.562h18.26s1.1-18.892,3.952-20.307l3.952-6.11s-6.324-.5-5.391-3.8S456.6,292.09,456.6,292.09Z" transform="translate(-123.772 -126.798)" fill="#747b9c"/>
    <path id="Path_272" data-name="Path 272" d="M484.36,290.3l15.58,7.557s1.889.474.941,8.031l.941,20.307H485.064a60.558,60.558,0,0,0,.711-19.358A129.411,129.411,0,0,1,484.36,290.3Z" transform="translate(-134.534 -126.423)" opacity="0.1"/>
    <path id="Path_273" data-name="Path 273" d="M485,290.3l15.58,7.557s1.889.474.941,8.031l.941,20.307H485.672a60.557,60.557,0,0,0,.711-19.358A129.41,129.41,0,0,1,485,290.3Z" transform="translate(-134.668 -126.423)" fill="#747b9c"/>
    <path id="Path_274" data-name="Path 274" d="M460.4,260.044c-.206,1.913-1.518,3.486-2.608,5.075s-2.039,3.549-1.431,5.375c.237.711.7,1.344.87,2.079.284,1.265-.356,2.569-.245,3.857.15,1.771,1.652,3.083,2.482,4.648,1.755,3.312.411,7.414-1.486,10.64s-4.379,6.284-5,9.976c-.577,3.415.53,6.869,1.723,10.118a3.162,3.162,0,0,1,.269,2.032c-.364,1.091-1.731,1.415-2.885,1.494a30.417,30.417,0,0,1-3.786,0,3.162,3.162,0,0,1-1.383-.293c-.87-.474-1.13-1.581-1.454-2.5s-1.036-1.96-2.024-1.858c-.648.071-1.154.624-1.794.735a1.85,1.85,0,0,1-1.581-.648c-1.178-1.273-.893-3.328-.119-4.877s1.96-2.9,2.474-4.553c1.273-4.11-1.913-8.181-2.585-12.434a4.014,4.014,0,0,1,.111-2.087c.577-1.47,2.324-2.016,3.573-2.98,2.553-1.984,2.869-5.66,3.075-8.885a115.925,115.925,0,0,1,1.233-11.564,20.9,20.9,0,0,1,2.087-6.917,23.4,23.4,0,0,1,3.715-4.577c1.944-2.024,3.952-4.095,6.577-5.138a12.489,12.489,0,0,1,9.122.261,24.149,24.149,0,0,1,7.675,5.3,18.134,18.134,0,0,1,4.743,6.632c1.162,3.2.79,6.727,1.146,10.118a25.126,25.126,0,0,0,2.126,7.9c1.241,2.719,2.988,5.32,3.257,8.3.213,2.371-.561,4.743-.956,7.075-.7,4.087-.277,8.268.134,12.387a9.968,9.968,0,0,0,.617,2.917,10.426,10.426,0,0,0,2.814,3.375,1.209,1.209,0,0,1,.5.79.956.956,0,0,1-.372.7c-1.431,1.273-3.9.332-5.454,1.462a8.761,8.761,0,0,0-1.178,1.249,5.312,5.312,0,0,1-9.1-2.466c-.4-1.85.2-3.747.427-5.628.712-5.936-2.324-11.58-4.743-17.042-1.138-2.553-2.174-5.32-1.755-8.086.34-2.221,1.581-4.174,2.49-6.229a17.544,17.544,0,0,0,.79-13.122,13,13,0,0,0-6.687-7.28c-1.122-.506-2.719-1.2-3.9-.522C459.964,255.965,460.557,258.274,460.4,260.044Z" transform="translate(-125.085 -117.146)" opacity="0.1"/>
    <path id="Path_275" data-name="Path 275" d="M460.4,259.442c-.206,1.913-1.518,3.486-2.608,5.075s-2.039,3.549-1.431,5.375c.237.711.7,1.344.87,2.079.284,1.265-.356,2.569-.245,3.857.15,1.771,1.652,3.083,2.482,4.648,1.755,3.312.411,7.415-1.486,10.64s-4.379,6.284-5,9.976c-.577,3.415.53,6.869,1.723,10.118a3.162,3.162,0,0,1,.269,2.031c-.364,1.091-1.731,1.415-2.885,1.494a30.4,30.4,0,0,1-3.786,0,3.161,3.161,0,0,1-1.383-.292c-.87-.474-1.13-1.581-1.454-2.5s-1.036-1.96-2.024-1.858c-.648.071-1.154.624-1.794.735a1.849,1.849,0,0,1-1.581-.648c-1.178-1.273-.893-3.328-.119-4.877s1.96-2.9,2.474-4.553c1.273-4.11-1.913-8.181-2.585-12.434a4.014,4.014,0,0,1,.111-2.087c.577-1.47,2.324-2.016,3.573-2.98,2.553-1.984,2.869-5.66,3.075-8.885a115.946,115.946,0,0,1,1.281-11.572,20.89,20.89,0,0,1,2.087-6.917,23.4,23.4,0,0,1,3.715-4.577c1.944-2.024,3.952-4.095,6.577-5.138a12.49,12.49,0,0,1,9.122.261,24.149,24.149,0,0,1,7.66,5.257,18.133,18.133,0,0,1,4.743,6.632c1.162,3.2.79,6.727,1.146,10.118a25.13,25.13,0,0,0,2.126,7.9c1.241,2.719,2.988,5.32,3.257,8.3.213,2.371-.561,4.743-.956,7.075-.7,4.087-.277,8.268.134,12.387a9.966,9.966,0,0,0,.6,2.933,10.426,10.426,0,0,0,2.814,3.375,1.21,1.21,0,0,1,.5.79.957.957,0,0,1-.371.7c-1.431,1.273-3.9.332-5.454,1.462a8.771,8.771,0,0,0-1.178,1.249,5.312,5.312,0,0,1-9.1-2.466c-.4-1.85.2-3.747.427-5.628.711-5.936-2.324-11.58-4.743-17.042-1.138-2.553-2.174-5.32-1.755-8.086.34-2.221,1.581-4.174,2.49-6.229a17.543,17.543,0,0,0,.79-13.122,13,13,0,0,0-6.687-7.28c-1.122-.506-2.719-1.2-3.9-.522C459.964,255.363,460.557,257.679,460.4,259.442Z" transform="translate(-125.085 -117.018)" fill="#b96b6b"/>
    <rect id="Rectangle_34" data-name="Rectangle 34" width="56.913" height="2.371" transform="translate(391.847 128.86)" fill="#e8eaf1"/>
    <rect id="Rectangle_35" data-name="Rectangle 35" width="56.913" height="2.371" transform="translate(391.847 135.183)" fill="#e8eaf1"/>
    <rect id="Rectangle_36" data-name="Rectangle 36" width="56.913" height="2.371" transform="translate(391.847 141.507)" fill="#e8eaf1"/>
    <rect id="Rectangle_37" data-name="Rectangle 37" width="56.913" height="2.371" transform="translate(391.847 147.831)" fill="#e8eaf1"/>
    <rect id="Rectangle_38" data-name="Rectangle 38" width="56.913" height="2.371" transform="translate(391.847 154.154)" fill="#e8eaf1"/>
    <rect id="Rectangle_39" data-name="Rectangle 39" width="56.913" height="2.371" transform="translate(391.847 160.478)" fill="#e8eaf1"/>
    <rect id="Rectangle_40" data-name="Rectangle 40" width="56.913" height="2.371" transform="translate(391.847 166.802)" fill="#e8eaf1"/>
    <rect id="Rectangle_41" data-name="Rectangle 41" width="56.913" height="2.371" transform="translate(391.847 173.126)" fill="#e8eaf1"/>
    <rect id="Rectangle_42" data-name="Rectangle 42" width="56.913" height="2.371" transform="translate(391.847 179.449)" fill="#e8eaf1"/>
    <rect id="Rectangle_43" data-name="Rectangle 43" width="56.913" height="2.371" transform="translate(391.847 185.773)" fill="#e8eaf1"/>
    <rect id="Rectangle_44" data-name="Rectangle 44" width="56.913" height="2.371" transform="translate(391.847 192.097)" fill="#e8eaf1"/>
    <path id="Path_276" data-name="Path 276" d="M733.768,417.714a57.7,57.7,0,0,0,3.367-34.646,295.642,295.642,0,0,1-5.636-42.092c-.9-13.556-2.877-22.339-5.035-28.03h0s.83-18.449-11.667-28.069-41.665-24.86-41.665-24.86l2.917-11.912h-.118a11.447,11.447,0,0,0,2.506-1.146,10.873,10.873,0,0,0,2.253-1.873c4.933-4.316,5-12.236,7.343-18.544,1.8-4.853,5.177-9.011,7.6-13.612,4.4-8.379,5.431-18.663,1.336-27.184S683.171,171.1,673.488,172.2a42.182,42.182,0,0,0-9.138,2.458c-7.011,2.466-12.545-4.514-19.556-2.039-3.518,1.241-16.647,2.585-19.493,6.2a3.241,3.241,0,0,0-1.344,1.818c-.743,3.51,5.683,10.537,10.45,16.149a25.722,25.722,0,0,0-5.865,16.331q0,.2,0,.4v.4a25.88,25.88,0,0,0,7.865,18.521c-.4,3.525-1,7.494-1.865,11.557h-.577s-3.336,14.434-14.165,14.434c-2.893,0-6.845-.174-11.066-.419a115.709,115.709,0,0,0-37.808,4.355c-4.221,1.178-8.869,1.281-12.758-1.526-9.3-6.711-19.3-23.8-20.671-26.18,1.043-6.932.9-19.627-13.493-21.935-16.876-2.7-15.951,16.853-6.245,29.295a7.741,7.741,0,0,0-.474,1.929c-.83,10.426,9.169,29.674,11.667,32.077s2.561,17.635,20.03,21.674,30.038,5.612,30.828,25.666,17.5,40.9,9.169,64.162c-5,13.96-3.7,21.271-1.858,24.884-.15.474-.292.941-.451,1.423-1.9,5.762-4.253,11.549-6.861,15.019-.6.79-1.186,1.644-1.747,2.53-6.782,4.4-13.865,9.312-16.6,12.308-5.834,6.419-3.336,32.077,0,42.5s24.164,73.782,24.164,73.782h.79l.253,1.581.838,5.249a7.855,7.855,0,0,1-.791-.49,1.352,1.352,0,0,0-2,.537l-4.071,9.09s-16.663-7.2-17.517,9.644v1.929c-.04,8.956,4.893,12.292,9.122,13.493a34.865,34.865,0,0,1,10.861,5.043c4.008,2.877,10.11,5.818,17.05,4.221a16.861,16.861,0,0,1,4.276-.4c3,.087,8.063-.79,7.9-7.478a12.913,12.913,0,0,0,0-1.581s-3.517-13.541-3.668-19.762a4.625,4.625,0,0,1,.332-1.85,13.221,13.221,0,0,0,.735-5.589,58.728,58.728,0,0,0-.309-6.027.933.933,0,0,0-1.7-.391l-.134.182c-.537-1.779-1.162-3.857-1.747-5.818l-.482-1.581H606.5s-6.679-39.373-4.181-42.535c1.636-2.095-1-27.16-3.028-44.266,20.3,1.289,52.653-2.3,74.786-3.407a28.33,28.33,0,0,0,12.086-3.367c-2,16.22-5.715,48.637-3.85,51.032,2.5,3.209-4.166,42.5-4.166,42.5h1l-.364,1.2h.126c-.617,2.079-1.289,4.316-1.866,6.221l-.134-.182a.933.933,0,0,0-1.7.4,58.633,58.633,0,0,0-.308,6.015c0,2.3.15,4.45.735,5.589a4.621,4.621,0,0,1,.332,1.85c-.15,6.26-3.668,19.762-3.668,19.762a12.986,12.986,0,0,0,0,1.581c-.166,6.719,4.9,7.573,7.9,7.478a16.855,16.855,0,0,1,4.276.4c6.94,1.581,13.043-1.352,17.05-4.221a34.869,34.869,0,0,1,10.861-5.043c4.229-1.2,9.161-4.537,9.122-13.493v-1.929c-.877-16.829-17.54-9.628-17.54-9.628l-4.095-9.122a1.352,1.352,0,0,0-2-.538,7.781,7.781,0,0,1-.79.49l1.1-6.853h.791s20.829-63.356,24.165-73.782,5.834-36.092,0-42.5c-2.759-3.035-9.976-8.031-16.829-12.466a156.251,156.251,0,0,1,16.829,11.667Zm-35.982,8.039-2.648-1.581a12.582,12.582,0,0,0-2-2.6,21.069,21.069,0,0,1-2.039-2.292c-1.628-4.925-7.644-25.295.379-35.8,5.826-7.652,6.268-22.433,5.81-32.188,3.952,19.374,9.486,46.637,10.023,52.234C707.968,410.513,700.806,421.508,697.786,425.753Z" transform="translate(-140.076 -101.649)" fill="url(#linear-gradient-2)"/>
    <path id="Path_277" data-name="Path 277" d="M738.133,655.128l-3.162,20.552L716,671.727s3.952-13.438,4.743-16.6.79,0,.79,0Z" transform="translate(-183.071 -202.573)" fill="#d6e6f9"/>
    <path id="Path_278" data-name="Path 278" d="M630.133,671.727l-18.971,3.952-2.19-14.228L608,655.128h16.6s0-3.162.79,0c.285,1.138.98,3.62,1.763,6.324C628.552,666.242,630.133,671.727,630.133,671.727Z" transform="translate(-160.441 -202.573)" fill="#d6e6f9"/>
    <path id="Path_279" data-name="Path 279" d="M627.173,661.451H608.992l-.972-6.324h16.6s0-3.162.79,0C625.695,656.266,626.39,658.748,627.173,661.451Z" transform="translate(-160.445 -202.573)" opacity="0.1"/>
    <path id="Path_280" data-name="Path 280" d="M719.79,660.951h18.181l.972-6.324H722.327s0-3.162-.791,0C721.268,655.766,720.573,658.248,719.79,660.951Z" transform="translate(-183.865 -202.468)" opacity="0.1"/>
    <path id="Path_281" data-name="Path 281" d="M760.714,340.5s10.276.79,12.647,37.942a302.15,302.15,0,0,0,5.383,41.5,58.923,58.923,0,0,1-3.162,34.116l-10.126,24.773s-18.971-15.809-25.295-15.019c0,0,11.066-15.019,10.276-23.714S737,368.957,737,368.957Z" transform="translate(-187.471 -136.942)" fill="#d6e6f9"/>
    <path id="Path_282" data-name="Path 282" d="M608.158,489.5s-24.5,15.019-30.038,21.342-3.162,31.619,0,41.895,22.923,72.723,22.923,72.723h19.762s-6.324-38.733-3.952-41.895-4.743-59.285-4.743-59.285Z" transform="translate(-153.485 -168.163)" fill="#5f546f"/>
    <path id="Path_283" data-name="Path 283" d="M731.647,489.5s24.5,15.019,30.038,21.342,3.162,31.619,0,41.895-22.923,72.723-22.923,72.723H719s6.324-38.733,3.952-41.895,4.743-59.285,4.743-59.285Z" transform="translate(-183.7 -168.163)" fill="#5f546f"/>
    <path id="Path_284" data-name="Path 284" d="M608.158,489.5s-24.5,15.019-30.038,21.342-3.162,31.619,0,41.895,22.923,72.723,22.923,72.723h19.762s-6.324-38.733-3.952-41.895-4.743-59.285-4.743-59.285Z" transform="translate(-153.485 -168.163)" opacity="0.1"/>
    <path id="Path_285" data-name="Path 285" d="M731.647,489.5s24.5,15.019,30.038,21.342,3.162,31.619,0,41.895-22.923,72.723-22.923,72.723H719s6.324-38.733,3.952-41.895,4.743-59.285,4.743-59.285Z" transform="translate(-183.7 -168.163)" opacity="0.1"/>
    <path id="Path_286" data-name="Path 286" d="M666.714,235.01s0,30.828-11.066,46.637,50.59,2.371,50.59,2.371a16.418,16.418,0,0,1-5.928-8.3c-3.257-11.6-4.49-32.022.4-40.709C707.818,222.363,666.714,235.01,666.714,235.01Z" transform="translate(-170.146 -113.66)" fill="#ffced8"/>
    <circle id="Ellipse_25" data-name="Ellipse 25" cx="26.085" cy="26.085" r="26.085" transform="translate(488.284 90.127)" opacity="0.1"/>
    <circle id="Ellipse_26" data-name="Ellipse 26" cx="26.085" cy="26.085" r="26.085" transform="translate(488.284 89.336)" fill="#ffced8"/>
    <path id="Path_287" data-name="Path 287" d="M692.268,553.981c-28.275,1.249-75.307,6.513-82.437-1.3-11.5-12.592-7.422-23.927-1.486-30.828,2.324-2.711,4.411-7.248,6.1-11.778.569-1.534,1.1-3.059,1.581-4.514,1.826-5.636,7.9-9.525,14.782-9.525h57.1c6.917,0,13,3.952,14.8,9.588a25.365,25.365,0,0,0,3.636,7.391,17.9,17.9,0,0,0,2.917,3.162c2.877,2.443,4.743,7.707,5.952,13.5C717.76,541.95,706.947,553.333,692.268,553.981Z" transform="translate(-159.291 -169.533)" fill="#5f546f"/>
    <path id="Path_288" data-name="Path 288" d="M692.268,553.981c-28.275,1.249-75.307,6.513-82.437-1.3-11.5-12.592-7.422-23.927-1.486-30.828,2.324-2.711,4.411-7.248,6.1-11.778.569-1.534,1.1-3.059,1.581-4.514,1.826-5.636,7.9-9.525,14.782-9.525h57.1c6.917,0,13,3.952,14.8,9.588a25.365,25.365,0,0,0,3.636,7.391,17.9,17.9,0,0,0,2.917,3.162c2.877,2.443,4.743,7.707,5.952,13.5C717.76,541.95,706.947,553.333,692.268,553.981Z" transform="translate(-159.291 -169.533)" opacity="0.1"/>
    <path id="Path_289" data-name="Path 289" d="M614.8,673.182c-2.474-.5-8.932-1.921-11.438-3.826a1.257,1.257,0,0,0-1.9.53l-3.873,9.019s-15.809-7.114-16.6,9.485c-.458,9.683,4.458,13.177,8.64,14.41a32.518,32.518,0,0,1,10.331,4.956c3.8,2.83,9.6,5.731,16.173,4.166a15.414,15.414,0,0,1,4.055-.4c2.948.095,8.031-.791,7.47-8.134,0,0-4.743-18.971-3.162-22.133,1-1.992.735-7.114.411-10.64a.877.877,0,0,0-1.581-.4,6.956,6.956,0,0,1-6.094,3.162A11.072,11.072,0,0,1,614.8,673.182Z" transform="translate(-154.776 -205.799)" opacity="0.1"/>
    <path id="Path_290" data-name="Path 290" d="M614.8,674.182c-2.474-.5-8.932-1.921-11.438-3.826a1.257,1.257,0,0,0-1.9.53l-3.873,9.019s-15.809-7.114-16.6,9.486c-.458,9.683,4.458,13.177,8.64,14.41a32.52,32.52,0,0,1,10.331,4.956c3.8,2.83,9.6,5.731,16.173,4.166a15.408,15.408,0,0,1,4.055-.4c2.948.095,8.031-.791,7.47-8.134,0,0-4.743-18.971-3.162-22.133,1-1.992.735-7.114.411-10.64a.877.877,0,0,0-1.581-.4,6.956,6.956,0,0,1-6.094,3.162A11.064,11.064,0,0,1,614.8,674.182Z" transform="translate(-154.776 -206.008)" fill="#bc8387"/>
    <path id="Path_291" data-name="Path 291" d="M724.848,673.182c2.474-.5,8.932-1.921,11.438-3.826a1.257,1.257,0,0,1,1.9.53l3.85,9.019s15.809-7.114,16.6,9.485c.459,9.683-4.458,13.177-8.64,14.41a32.519,32.519,0,0,0-10.276,4.972c-3.8,2.83-9.6,5.731-16.173,4.166a15.408,15.408,0,0,0-4.055-.4c-2.948.1-8.031-.79-7.47-8.134,0,0,4.743-18.971,3.162-22.133-1-1.992-.735-7.114-.411-10.64a.877.877,0,0,1,1.581-.4,6.956,6.956,0,0,0,6.095,3.162A11.073,11.073,0,0,0,724.848,673.182Z" transform="translate(-182.228 -205.799)" opacity="0.1"/>
    <path id="Path_292" data-name="Path 292" d="M724.848,674.182c2.474-.5,8.932-1.921,11.438-3.826a1.257,1.257,0,0,1,1.9.53l3.85,9.019s15.809-7.114,16.6,9.486c.459,9.683-4.458,13.177-8.64,14.41a32.518,32.518,0,0,0-10.276,4.972c-3.8,2.83-9.6,5.731-16.173,4.166a15.421,15.421,0,0,0-4.055-.4c-2.948.095-8.031-.791-7.47-8.134,0,0,4.743-18.971,3.162-22.133-1-1.992-.735-7.114-.411-10.64a.877.877,0,0,1,1.581-.4,6.957,6.957,0,0,0,6.095,3.162A11.061,11.061,0,0,0,724.848,674.182Z" transform="translate(-182.228 -206.008)" fill="#bc8387"/>
    <path id="Path_293" data-name="Path 293" d="M542.54,254.519s7.114-22.923-11.857-26.085-14.228,24.5,0,34.78S542.54,254.519,542.54,254.519Z" transform="translate(-141.619 -113.407)" fill="#ffced8"/>
    <path id="Path_294" data-name="Path 294" d="M708.647,483.481c-22.133,36.361-96.437-4.743-96.437-4.743s-1.763-.964-2.98-4.11c.609-1.921,1.17-3.842,1.676-5.668A16.315,16.315,0,0,1,626.668,457h60.866A16.291,16.291,0,0,1,703.3,469.039a34.474,34.474,0,0,0,3.873,9.28C707.951,481.5,708.647,483.481,708.647,483.481Z" transform="translate(-160.699 -161.353)" opacity="0.1"/>
    <path id="Path_295" data-name="Path 295" d="M641.4,264.982h-4.743s-3.162,14.228-13.438,14.228c-2.743,0-6.49-.166-10.521-.419a105.861,105.861,0,0,0-35.871,4.292c-4.008,1.162-8.41,1.265-12.1-1.5-9.486-7.114-19.762-26.085-19.762-26.085s-18.181-.79-18.971,9.486,8.7,29.247,11.067,31.618,2.371,17.39,18.971,21.343,28.457,5.533,29.247,25.295,16.6,40.314,8.7,63.237.79,27.666.79,27.666,74.3,41.1,96.437,4.743c0,0-8.7-24.5,0-36.361s4.743-41.1,4.743-41.1l28.457-28.457s.79-18.181-11.067-27.666-39.523-24.5-39.523-24.5l2.767-11.746Z" transform="translate(-143.247 -119.127)" fill="#d6e6f9"/>
    <path id="Path_296" data-name="Path 296" d="M669.063,226.473c-.6,7.438-.364,15.928,5.138,20.979,2.7,2.482,6.324,3.723,9.873,4.585a63.081,63.081,0,0,0,11.391,1.684c3.51.19,7.249,0,10.2-1.873,6.039-3.9,5.9-12.56,8.316-19.335,1.707-4.79,4.917-8.877,7.209-13.438,4.174-8.252,5.154-18.394,1.265-26.789s-13.082-14.418-22.267-13.319a38.84,38.84,0,0,0-8.7,2.427c-6.656,2.435-11.9-4.45-18.552-2.016-3.636,1.328-18.086,2.79-18.971,7.114-1.051,5.138,12.932,17.951,14.442,22.449C670.391,214.734,669.063,220.544,669.063,226.473Z" transform="translate(-170.061 -103.067)" opacity="0.1"/>
    <path id="Path_297" data-name="Path 297" d="M670.063,225.473c-.6,7.438-.364,15.928,5.138,20.979,2.7,2.482,6.324,3.723,9.873,4.585a63.077,63.077,0,0,0,11.391,1.684c3.51.19,7.249,0,10.2-1.873,6.039-3.9,5.9-12.56,8.316-19.335,1.707-4.79,4.917-8.877,7.209-13.438,4.174-8.252,5.154-18.394,1.265-26.789s-13.082-14.418-22.267-13.319a38.836,38.836,0,0,0-8.7,2.427c-6.656,2.435-11.9-4.45-18.552-2.016-3.636,1.328-18.086,2.79-18.971,7.114-1.051,5.138,12.932,17.951,14.442,22.449C671.391,213.734,670.063,219.544,670.063,225.473Z" transform="translate(-170.27 -102.858)" fill="#ae767a"/>
    <path id="Path_298" data-name="Path 298" d="M659.52,280.49s4.743,1.984,18.181,5.936,23.714,0,23.714,0" transform="translate(-171.237 -124.367)" opacity="0.1"/>
    <path id="Path_299" data-name="Path 299" d="M614.5,423.4s22.133,1.265,29.247,10.75,9.486,12.647,18.181,12.647,36.361,1.581,40.314,3.162" transform="translate(-161.803 -154.312)" opacity="0.1"/>
    <rect id="Rectangle_45" data-name="Rectangle 45" width="13.217" height="15.106" transform="translate(499.065 508.63)" fill="#c0bccf"/>
    <rect id="Rectangle_46" data-name="Rectangle 46" width="10.387" height="76.469" transform="translate(582.143 322.65)" fill="#cb919b"/>
    <rect id="Rectangle_47" data-name="Rectangle 47" width="22.655" height="2.83" transform="translate(565.148 398.17)" fill="#cb919b"/>
    <rect id="Rectangle_48" data-name="Rectangle 48" width="10.387" height="76.469" transform="translate(419.758 322.65)" fill="#cb919b"/>
    <rect id="Rectangle_49" data-name="Rectangle 49" width="22.655" height="2.83" transform="translate(421.647 398.17)" fill="#cb919b"/>
    <rect id="Rectangle_50" data-name="Rectangle 50" width="21.714" height="92.524" transform="translate(496.228 402.897)" fill="#c0bccf"/>
    <path id="Path_300" data-name="Path 300" d="M667.893,506.769c58.494,2.039,60.423-20.37,60.423-20.37l-3.778-62.138c-.941-96.776-56.645-82.516-56.645-82.516s-55.7-14.228-56.645,82.516L607.47,486.4S609.359,508.809,667.893,506.769Z" transform="translate(-160.33 -137.048)" fill="#cb919b"/>
    <path id="Path_301" data-name="Path 301" d="M667.893,506.769c58.494,2.039,60.423-20.37,60.423-20.37l-3.778-62.138c-.941-96.776-56.645-82.516-56.645-82.516s-55.7-14.228-56.645,82.516L607.47,486.4S609.359,508.809,667.893,506.769Z" transform="translate(-160.33 -137.048)" fill="#fff" opacity="0.1"/>
    <path id="Path_302" data-name="Path 302" d="M666.645,503.918c55.791,1.945,57.585-19.422,57.585-19.422l-3.6-59.229c-.9-92.239-53.989-78.643-53.989-78.643s-53.088-13.6-53.989,78.643l-3.6,59.229S610.854,505.862,666.645,503.918Z" transform="translate(-160.663 -138.077)" fill="#cb919b"/>
    <rect id="Rectangle_51" data-name="Rectangle 51" width="23.603" height="40.598" rx="11.802" transform="translate(494.346 340.585)" fill="#c0bccf"/>
    <path id="Path_303" data-name="Path 303" d="M691.253,705.434v3.3H669.57v-3.273l1.889-.5h17.936Z" transform="translate(-173.342 -213.309)" opacity="0.1"/>
    <path id="Path_304" data-name="Path 304" d="M571.563,737.292s-9.446-7.549,79.331-31.152h17.936S745.275,725,746.216,737.292H734.888S693.35,725,674.466,725s-75.529,1.889-92.484,12.276Z" transform="translate(-152.745 -213.557)" fill="#c0bccf"/>
    <path id="Path_305" data-name="Path 305" d="M536.876,419.77h3.992a10.276,10.276,0,0,1,10.276,10.276v4.83H526.6v-4.83a10.276,10.276,0,0,1,10.276-10.276Z" transform="translate(-114.391 -108.456)" fill="#cb919b"/>
    <path id="Path_306" data-name="Path 306" d="M742.276,419.77h3.992a10.276,10.276,0,0,1,10.276,10.276v4.83H732v-4.83a10.276,10.276,0,0,1,10.276-10.276Z" transform="translate(-157.43 -108.456)" fill="#cb919b"/>
    <circle id="Ellipse_27" data-name="Ellipse 27" cx="6.608" cy="6.608" r="6.608" transform="translate(416.928 523.736)" fill="#5a5773"/>
    <circle id="Ellipse_28" data-name="Ellipse 28" cx="6.608" cy="6.608" r="6.608" transform="translate(499.065 523.736)" fill="#5a5773"/>
    <circle id="Ellipse_29" data-name="Ellipse 29" cx="6.608" cy="6.608" r="6.608" transform="translate(582.143 523.736)" fill="#5a5773"/>
    <rect id="Rectangle_52" data-name="Rectangle 52" width="21.714" height="3.778" transform="translate(496.228 402.897)" opacity="0.1"/>
    <path id="Path_307" data-name="Path 307" d="M665.762,588.063H729l4.743-9.438c2.83-16.047-7.549-17-7.549-17H605.339s-10.387.941-7.549,17l4.743,9.438Z" transform="translate(-158.199 -183.276)" fill="#cb919b"/>
    <path id="Path_308" data-name="Path 308" d="M665.762,588.063H729l4.743-9.438c2.83-16.047-7.549-17-7.549-17H605.339s-10.387.941-7.549,17l4.743,9.438Z" transform="translate(-158.199 -183.276)" fill="#fff" opacity="0.1"/>
    <path id="Path_309" data-name="Path 309" d="M665.762,589.063H729l4.743-8.094c2.83-13.754-7.549-14.568-7.549-14.568H605.339s-10.387.791-7.549,14.568l4.743,8.094Z" transform="translate(-158.199 -184.276)" fill="#cb919b"/>
    <path id="Path_310" data-name="Path 310" d="M841.807,357.274s-7.217-2.443-10.687,3.952a11.6,11.6,0,0,0,.15,11.169c2.285,4.126,6.98,9.486,15.888,9,7.557-.4,10.063-6.166,10.75-11.533a11.857,11.857,0,0,0-15.73-12.647Z" transform="translate(-206.908 -140.302)" fill="#d83d21"/>
    <path id="Path_311" data-name="Path 311" d="M832.816,372.847a11.6,11.6,0,0,1-.15-11.169c3.47-6.324,10.687-3.952,10.687-3.952l.371-.134a11.738,11.738,0,0,1,8.482.19,11.746,11.746,0,0,0-10.007-.956l-.371.134s-7.217-2.443-10.687,3.952a11.6,11.6,0,0,0,.15,11.169,17.342,17.342,0,0,0,8.15,7.723,17.888,17.888,0,0,1-6.624-6.956Z" transform="translate(-206.913 -140.216)" fill="#fff" opacity="0.1"/>
    <path id="Path_312" data-name="Path 312" d="M840.3,361.34s2.672,2.1,9.177,0" transform="translate(-209.117 -141.308)" opacity="0.2"/>
    <path id="Path_313" data-name="Path 313" d="M839.58,342s4.585,12.426,4.205,15.675l3.628-.379s-6.118-10.893-4.585-15.288Z" transform="translate(-208.966 -137.256)" fill="#d83d21"/>
    <path id="Path_314" data-name="Path 314" d="M839.58,342s4.585,12.426,4.205,15.675l3.628-.379s-6.118-10.893-4.585-15.288Z" transform="translate(-208.966 -137.256)" opacity="0.2"/>
    <path id="Path_315" data-name="Path 315" d="M859.5,342.82s-7.217-3.691-10.45-.64-3.723,10.845-3.723,10.845S857.1,354.645,859.5,342.82Z" transform="translate(-210.17 -137.041)" fill="#d83d21"/>
    <path id="Path_316" data-name="Path 316" d="M859.5,342.82s-7.217-3.691-10.45-.64-3.723,10.845-3.723,10.845S857.1,354.645,859.5,342.82Z" transform="translate(-210.17 -137.041)" fill="#fff" opacity="0.1"/>
    <path id="Path_317" data-name="Path 317" d="M845.33,353.515s1.9-9.051,14.173-10.2" transform="translate(-210.17 -137.53)" fill="none" stroke="#d83d21" stroke-miterlimit="10" stroke-width="1"/>
  </g>
</svg>
